<svg width="465" height="110" xmlns="http://www.w3.org/2000/svg" style="vector-effect: non-scaling-stroke;" stroke="null" version="1.1" data-name="Livello 1">
 <g stroke="null">
  <title stroke="null">Layer 1</title>
  <ellipse stroke="#000" ry="3.67647" rx="3.65196" id="svg_2" cy="7.73529" cx="413.74007" fill="#fff"/>
  <g stroke="null" id="svg_233">
   <g stroke="null" id="svg_234">
    <path stroke="null" id="svg_235" stroke-width="0px" fill="#19472c" d="m52.20592,69.61642c-0.11,2.18 -0.01,4.34 0.28,6.47c0.29,2.13 0.36,4.26 0.2,6.39c-0.59,0.16 -1.77,0.36 -3.55,0.6c-1.78,0.24 -3.7,0.48 -5.75,0.72c-2.05,0.24 -4.01,0.43 -5.87,0.56c-1.86,0.13 -3.12,0.2 -3.75,0.2c0,-0.27 -0.03,-0.55 -0.08,-0.84c-0.05,-0.29 -0.08,-0.6 -0.08,-0.92c0.05,-2.61 0.11,-5.22 0.16,-7.83c0.05,-2.61 0.11,-5.22 0.16,-7.83c0.11,-3.36 0.19,-6.71 0.24,-10.06c0.05,-3.36 0.11,-6.71 0.16,-10.07c0.05,-2.13 0.09,-4.25 0.12,-6.35c0.03,-2.1 0.09,-4.22 0.2,-6.35c0,-0.64 0.08,-1.33 0.24,-2.08c0.27,-0.11 0.53,-0.23 0.8,-0.36c0.27,-0.13 0.53,-0.25 0.8,-0.36c1.76,-0.75 3.51,-1.48 5.27,-2.2c1.76,-0.72 3.54,-1.45 5.35,-2.2c1.12,-0.53 2.42,-0.67 3.91,-0.4c3.04,0.64 5.8,2 8.31,4.07c2.02,1.81 3.69,3.82 4.99,6.03c1.3,2.21 2.28,4.65 2.92,7.31c1.01,4.15 0.96,8.33 -0.16,12.54c-0.43,1.44 -0.99,2.81 -1.68,4.11c-0.69,1.31 -1.57,2.52 -2.64,3.63c-2.4,2.66 -5.46,4.31 -9.19,4.95c-0.21,0.05 -0.43,0.09 -0.64,0.12c-0.21,0.03 -0.45,0.07 -0.72,0.12l0,0.03zm-2.48,-12.62c1.06,-0.53 1.82,-1.04 2.28,-1.52c0.45,-0.48 0.73,-1.12 0.84,-1.92c0.16,-1.81 -0.03,-3.51 -0.56,-5.11c-0.53,-1.6 -1.28,-3.12 -2.24,-4.55c-0.11,-0.11 -0.29,-0.17 -0.56,-0.2c-0.27,-0.03 -0.53,-0.09 -0.8,-0.2c0.16,2.34 0.28,4.62 0.36,6.83c0.08,2.21 0.31,4.43 0.68,6.67z" class="cls-1"/>
    <path stroke="null" id="svg_236" stroke-width="0px" fill="#19472c" d="m88.38592,53.95642l-0.56,29.63l-14.14,0.4l2.48,-19.01l-7.91,1.28l0.16,-13.26l19.97,0.96zm0,-25.92c-0.53,-1.36 -1.27,-2.54 -2.2,-3.55c-0.93,-1.01 -2.01,-1.81 -3.23,-2.4c-1.23,-0.59 -2.56,-0.88 -3.99,-0.88s-2.7,0.29 -3.95,0.88c-1.25,0.59 -2.33,1.39 -3.24,2.4c-0.9,1.01 -1.62,2.2 -2.16,3.55c-0.53,1.36 -0.8,2.81 -0.8,4.35s0.27,3 0.8,4.35c0.53,1.36 1.25,2.54 2.16,3.55c0.91,1.01 1.98,1.81 3.24,2.4c1.25,0.59 2.57,0.88 3.95,0.88s2.77,-0.29 3.99,-0.88c1.22,-0.59 2.3,-1.38 3.23,-2.4c0.93,-1.01 1.66,-2.2 2.2,-3.55c0.53,-1.36 0.8,-2.81 0.8,-4.35s-0.27,-3 -0.8,-4.35z" class="cls-1"/>
    <path stroke="null" id="svg_237" stroke-width="0px" fill="#19472c" d="m105.40592,66.41642c0.32,-1.76 0.51,-3.46 0.56,-5.11c0.05,-1.65 0.03,-3.33 -0.08,-5.03c0,-0.64 -0.05,-1.26 -0.16,-1.88c-0.11,-0.61 -0.21,-1.24 -0.32,-1.88c-0.05,-0.11 -0.12,-0.19 -0.2,-0.24c-0.08,-0.05 -0.17,-0.13 -0.28,-0.24c-0.53,0.91 -0.84,1.81 -0.92,2.72c-0.08,0.91 -0.17,1.81 -0.28,2.72c-0.11,0.91 -0.17,1.81 -0.2,2.72c-0.03,0.91 -0.07,1.84 -0.12,2.8c-0.85,0.27 -1.69,0.47 -2.52,0.6c-0.83,0.13 -1.67,0.25 -2.52,0.36c-0.8,0.16 -1.6,0.33 -2.4,0.52c-0.8,0.19 -1.65,0.25 -2.56,0.2c-0.11,-0.11 -0.2,-0.24 -0.28,-0.4c-0.08,-0.16 -0.15,-0.29 -0.2,-0.4c-0.27,-1.92 -0.4,-3.82 -0.4,-5.71s0.24,-3.77 0.72,-5.63c0.32,-1.38 0.88,-2.72 1.68,-3.99c1.86,-2.88 4.47,-4.34 7.83,-4.39c0.8,0 1.59,0.04 2.39,0.12c0.8,0.08 1.59,0.17 2.38,0.28c0.74,0.11 1.37,0.37 1.9,0.8c0.53,0.43 0.98,0.93 1.35,1.52c0.42,0.75 0.78,1.48 1.07,2.2c0.29,0.72 0.57,1.45 0.83,2.2c0.42,1.39 0.74,2.78 0.95,4.19c0.21,1.41 0.4,2.84 0.55,4.27c0.32,2.72 0.49,5.41 0.52,8.07c0.03,2.66 -0.01,5.35 -0.12,8.07c-0.05,0.91 -0.12,1.82 -0.2,2.76c-0.08,0.93 -0.15,1.88 -0.2,2.84c-0.05,0.85 -0.5,1.44 -1.35,1.76c-0.58,0.21 -1.15,0.39 -1.7,0.52c-0.55,0.13 -1.12,0.2 -1.7,0.2l-9.95,0c-0.75,-0.05 -1.51,-0.12 -2.28,-0.2c-0.77,-0.08 -1.53,-0.25 -2.28,-0.52c-1.12,-0.37 -2.08,-1.04 -2.88,-2c-1.06,-1.33 -1.73,-2.73 -2,-4.19c-0.27,-1.46 -0.27,-2.97 0,-4.51c0.11,-0.32 0.17,-0.64 0.2,-0.96c0.03,-0.32 0.09,-0.64 0.2,-0.96c0.75,-3.3 2.77,-5.11 6.07,-5.43c2.29,-0.21 4.61,0 6.95,0.64c0.27,0.11 0.55,0.21 0.84,0.32c0.29,0.11 0.65,0.21 1.08,0.32l0.03,-0.05zm-0.88,11.98c0.43,-0.9 0.64,-1.77 0.64,-2.6s-0.03,-1.64 -0.08,-2.44c0,-0.27 -0.12,-0.45 -0.36,-0.56c-0.24,-0.11 -0.47,-0.05 -0.68,0.16c-0.16,0.16 -0.31,0.32 -0.44,0.48c-0.13,0.16 -0.25,0.35 -0.36,0.56c-0.43,1.44 -0.24,2.72 0.56,3.83c0.05,0.11 0.15,0.2 0.28,0.28c0.13,0.08 0.28,0.17 0.44,0.28l0,0.01z" class="cls-1"/>
    <path stroke="null" id="svg_238" stroke-width="0px" fill="#19472c" d="m132.63592,30.79642c2.13,-0.43 4.23,-0.84 6.31,-1.24c2.08,-0.4 4.15,-0.73 6.23,-1c0.16,-0.05 0.32,-0.05 0.48,0c0.16,0.05 0.35,0.13 0.56,0.24c0.05,0.32 0.09,0.64 0.12,0.96c0.03,0.32 0.04,0.61 0.04,0.88l-1.44,29.71l-0.48,12.7c-0.05,0.64 -0.11,1.28 -0.16,1.92c-0.05,0.64 -0.05,1.28 0,1.92c0.05,1.07 -0.12,1.92 -0.52,2.56c-0.4,0.64 -0.92,1.23 -1.56,1.76c-2.29,2.08 -4.95,3.12 -7.99,3.12c-3.3,-0.05 -6.19,-0.9 -8.67,-2.56c-2.48,-1.65 -4.65,-4.05 -6.51,-7.19c-1.65,-2.77 -2.53,-5.91 -2.64,-9.43c-0.05,-1.49 0.11,-2.98 0.48,-4.47c0.37,-1.49 0.94,-2.85 1.72,-4.07c0.77,-1.22 1.74,-2.3 2.92,-3.24c1.17,-0.93 2.53,-1.64 4.07,-2.12c2.13,-0.69 4.15,-0.77 6.07,-0.24c0.27,0.11 0.51,0.16 0.72,0.16l0.64,0c0.27,-0.37 0.39,-0.73 0.36,-1.08c-0.03,-0.35 -0.04,-0.71 -0.04,-1.08l-0.72,-16.06l0,-2.16l0.01,0.01zm1.36,44.25l0,-10.14c-0.11,-0.59 -0.43,-0.77 -0.96,-0.56c-0.48,0.21 -0.81,0.52 -1,0.92c-0.19,0.4 -0.31,0.89 -0.36,1.48c-0.16,2.08 0.16,4.07 0.96,5.99c0.16,0.37 0.32,0.76 0.48,1.16s0.45,0.79 0.88,1.16l0,-0.01z" class="cls-1"/>
    <path stroke="null" id="svg_239" stroke-width="0px" fill="#19472c" d="m167.38592,53.95642l-0.56,29.63l-14.14,0.4l2.48,-19.01l-7.91,1.28l0.16,-13.26l19.97,0.96zm0,-25.92c-0.53,-1.36 -1.27,-2.54 -2.2,-3.55c-0.93,-1.01 -2.01,-1.81 -3.23,-2.4c-1.23,-0.59 -2.56,-0.88 -3.99,-0.88s-2.7,0.29 -3.95,0.88c-1.25,0.59 -2.33,1.39 -3.24,2.4c-0.9,1.01 -1.62,2.2 -2.16,3.55c-0.53,1.36 -0.8,2.81 -0.8,4.35s0.27,3 0.8,4.35c0.53,1.36 1.25,2.54 2.16,3.55c0.91,1.01 1.98,1.81 3.24,2.4c1.25,0.59 2.57,0.88 3.95,0.88s2.77,-0.29 3.99,-0.88c1.22,-0.59 2.3,-1.38 3.23,-2.4c0.93,-1.01 1.66,-2.2 2.2,-3.55c0.53,-1.36 0.8,-2.81 0.8,-4.35s-0.27,-3 -0.8,-4.35z" class="cls-1"/>
    <path stroke="null" id="svg_240" stroke-width="0px" fill="#19472c" d="m184.87592,45.56642c0.11,0.8 0.05,1.56 -0.16,2.28c-0.21,0.72 -0.37,1.45 -0.48,2.2c-0.11,0.75 -0.25,1.47 -0.44,2.16c-0.19,0.69 -0.36,1.41 -0.52,2.16c-0.16,0.75 -0.32,1.51 -0.48,2.28c-0.16,0.77 -0.37,1.67 -0.64,2.68c0.32,-0.37 0.56,-0.64 0.72,-0.8s0.29,-0.32 0.4,-0.48c0.8,-1.38 1.64,-2.7 2.52,-3.95c0.88,-1.25 1.85,-2.46 2.92,-3.63c0.8,-0.9 1.62,-1.76 2.48,-2.56c0.85,-0.8 1.78,-1.54 2.8,-2.24c0.75,-0.43 1.49,-0.81 2.24,-1.16c0.75,-0.35 1.57,-0.57 2.48,-0.68c1.06,-0.16 2,-0.08 2.8,0.24c0.8,0.32 1.57,0.83 2.32,1.52c1.01,1.07 1.76,2.34 2.24,3.83c0.48,1.39 0.81,2.81 1,4.27c0.19,1.47 0.23,2.92 0.12,4.35c-0.11,3.78 -0.55,7.47 -1.32,11.06c-0.77,3.59 -1.77,7.18 -3,10.74c-0.05,0.11 -0.09,0.21 -0.12,0.32c-0.03,0.11 -0.07,0.21 -0.12,0.32c-0.27,0.75 -0.8,1.15 -1.6,1.2c-1.07,0.11 -2.12,0.24 -3.16,0.4c-1.04,0.16 -2.09,0.29 -3.15,0.4c-1.55,0.21 -3.06,0.4 -4.55,0.56c-1.49,0.16 -2.98,0.32 -4.47,0.48l-1.36,0c-0.27,-0.27 -0.39,-0.51 -0.36,-0.72c0.03,-0.21 0.09,-0.45 0.2,-0.72c1.38,-4.31 2.76,-8.57 4.11,-12.78c1.36,-4.21 2.73,-8.47 4.11,-12.78l0,-0.48c-0.16,0.16 -0.31,0.29 -0.44,0.4c-0.13,0.11 -0.25,0.21 -0.36,0.32c-1.54,2.5 -3.1,4.97 -4.67,7.39c-1.57,2.42 -2.89,4.99 -3.95,7.71c-0.75,1.81 -1.43,3.63 -2.04,5.47c-0.61,1.84 -1.05,3.77 -1.32,5.79c-1.55,0.21 -3.08,0.41 -4.59,0.6c-1.52,0.19 -3.05,0.41 -4.59,0.68c-0.11,-0.37 -0.19,-0.72 -0.24,-1.04c-0.05,-0.32 -0.08,-0.64 -0.08,-0.96c-0.11,-2.93 -0.2,-5.84 -0.28,-8.75c-0.08,-2.9 -0.17,-5.82 -0.28,-8.75c-0.11,-2.56 -0.19,-5.08 -0.24,-7.59c-0.05,-2.5 -0.11,-5.03 -0.16,-7.59l0,-1.92c0.59,-0.21 1.65,-0.45 3.2,-0.72c1.54,-0.27 3.16,-0.52 4.83,-0.76c1.68,-0.24 3.26,-0.43 4.75,-0.56c1.49,-0.13 2.48,-0.2 2.96,-0.2l-0.03,0.01z" class="cls-1"/>
    <path stroke="null" id="svg_241" stroke-width="0px" fill="#19472c" d="m236.07592,60.02642c-0.16,2.45 -0.31,4.81 -0.44,7.07c-0.13,2.26 -0.28,4.54 -0.44,6.83c-0.16,1.49 -0.4,2.9 -0.72,4.23c-0.59,2.34 -2.1,3.94 -4.55,4.79c-0.91,0.32 -1.81,0.56 -2.72,0.72c-1.6,0.27 -3.21,0.45 -4.83,0.56c-1.62,0.11 -3.29,0.11 -4.99,0c-0.53,-0.05 -1.07,-0.12 -1.6,-0.2c-0.53,-0.08 -1.04,-0.23 -1.52,-0.44c-1.12,-0.43 -2.05,-1.01 -2.8,-1.76c-0.75,-0.75 -1.25,-1.73 -1.52,-2.96c-0.37,-1.6 -0.71,-3.2 -1,-4.79c-0.29,-1.6 -0.57,-3.22 -0.84,-4.87c-0.32,-2.45 -0.48,-4.98 -0.48,-7.59c0,-1.06 0.05,-2.13 0.16,-3.2c0.11,-1.06 0.21,-2.13 0.32,-3.19c0.11,-0.85 0.32,-1.66 0.64,-2.44c0.32,-0.77 0.69,-1.53 1.12,-2.28c0.53,-1.01 1.38,-1.76 2.56,-2.24c1.01,-0.48 2.05,-0.88 3.12,-1.2c1.06,-0.32 2.13,-0.61 3.2,-0.88c1.81,-0.43 3.61,-0.78 5.39,-1.08c1.78,-0.29 3.61,-0.49 5.47,-0.6c0.21,0 0.37,-0.03 0.48,-0.08c1.54,-0.11 2.69,0.11 3.43,0.64c0.75,0.53 1.28,1.57 1.6,3.12c0.27,1.17 0.45,2.48 0.56,3.91c0.11,1.39 0.19,2.74 0.24,4.07c0.05,1.33 0.11,2.61 0.16,3.83l0,0.03zm-14.45,12.06c0.9,-0.21 1.56,-0.52 1.96,-0.92c0.4,-0.4 0.6,-1 0.6,-1.8c0,-0.9 0.04,-1.82 0.12,-2.76c0.08,-0.93 0.17,-1.85 0.28,-2.76c0.05,-0.59 0.09,-1.17 0.12,-1.76c0.03,-0.59 -0.04,-1.17 -0.2,-1.76c-0.43,0.11 -0.84,0.19 -1.24,0.24c-0.4,0.05 -0.81,0.13 -1.24,0.24c-0.27,0.05 -0.52,0.13 -0.76,0.24c-0.24,0.11 -0.52,0.21 -0.84,0.32c0.11,1.76 0.28,3.51 0.52,5.27c0.24,1.76 0.47,3.57 0.68,5.43l0,0.02z" class="cls-1"/>
   </g>
   <path stroke="null" id="svg_242" fill="#e84238" stroke-width="0px" d="m27.72592,47.66642c4.75,-0.97 4.46,2.52 4.46,2.52l4.65,24.23c0.87,5.72 -4.75,7.27 -4.75,7.27c0,0 -14.64,4.17 -21.71,5.62c-7.08,1.45 -8.72,-4.36 -8.72,-4.36c0,0 -1.45,-21.23 -1.65,-25.98c-0.19,-4.75 4.26,-5.14 4.26,-5.14l6.3,-1.07l17.16,-3.1l0,0.01z" class="cls-5"/>
   <g stroke="null" id="svg_243">
    <path stroke="null" id="svg_244" fill="#fff" stroke-width="0px" d="m18.54592,66.90642l2.38,10.47l-4.94,1.37l-0.78,-6.9l-2.67,1.14l-1.1,-4.68l7.11,-1.4zm-2.25,-9.12c-0.31,-0.43 -0.67,-0.78 -1.08,-1.06c-0.42,-0.27 -0.86,-0.46 -1.35,-0.56c-0.48,-0.1 -0.98,-0.09 -1.48,0.04s-0.92,0.34 -1.31,0.65c-0.39,0.32 -0.7,0.69 -0.93,1.12c-0.23,0.43 -0.38,0.91 -0.45,1.44c-0.07,0.52 -0.04,1.06 0.1,1.6s0.35,1.03 0.66,1.46c0.31,0.43 0.66,0.79 1.07,1.06c0.41,0.28 0.85,0.46 1.35,0.56c0.49,0.1 0.98,0.09 1.47,-0.03c0.51,-0.12 0.95,-0.34 1.33,-0.66c0.38,-0.31 0.69,-0.69 0.93,-1.12c0.24,-0.44 0.39,-0.92 0.46,-1.44s0.04,-1.06 -0.1,-1.6c-0.13,-0.54 -0.35,-1.03 -0.66,-1.46l-0.01,0z" class="cls-6"/>
    <path stroke="null" id="svg_245" fill="#fff" stroke-width="0px" d="m27.26592,74.70642c-0.53,0.35 -1.03,0.72 -1.52,1.1c-0.48,0.39 -1,0.75 -1.55,1.08c-0.07,-0.1 -0.12,-0.19 -0.15,-0.26c-0.04,-0.07 -0.07,-0.15 -0.09,-0.25c-0.19,-0.53 -0.38,-1.06 -0.56,-1.6c-0.18,-0.54 -0.36,-1.08 -0.53,-1.61l-2.67,-8.28c-0.26,-0.83 -0.53,-1.65 -0.79,-2.47c-0.26,-0.82 -0.53,-1.64 -0.79,-2.47l-0.16,-0.65c0.49,-0.36 1,-0.67 1.54,-0.93c0.54,-0.26 1.06,-0.54 1.57,-0.82c0.52,-0.29 1.05,-0.57 1.58,-0.85c0.53,-0.28 1.08,-0.54 1.65,-0.78c0.06,0.15 0.1,0.27 0.14,0.37c0.03,0.1 0.06,0.2 0.09,0.29l0.37,2.59l0.88,7.2c0.17,1.33 0.33,2.65 0.49,3.96c0.16,1.31 0.32,2.63 0.49,3.96c0.02,0.09 0.03,0.23 0.01,0.41l0,0.01z" class="cls-6"/>
   </g>
   <g stroke="null" id="svg_246">
    <path stroke="null" id="svg_247" fill="#f39200" stroke-width="0px" d="m241.36592,64.41642c0.85,-0.21 2.14,-0.39 3.87,-0.52c1.73,-0.13 3.4,-0.17 4.99,-0.12c0.43,0.21 0.71,0.49 0.84,0.84c0.13,0.35 0.25,0.71 0.36,1.08c1.01,2.5 2.9,3.83 5.67,3.99c0.69,0.05 1.37,0.05 2.04,0c0.67,-0.05 1.37,-0.13 2.11,-0.24c0.26,0 0.5,-0.07 0.71,-0.2c0.21,-0.13 0.45,-0.28 0.71,-0.44c0.26,-0.11 0.41,-0.29 0.44,-0.56c0.03,-0.27 -0.04,-0.53 -0.2,-0.8c-0.26,-0.48 -0.58,-0.86 -0.95,-1.16c-0.37,-0.29 -0.77,-0.57 -1.19,-0.84c-1.01,-0.59 -2.04,-1.06 -3.08,-1.44c-1.04,-0.37 -2.09,-0.72 -3.16,-1.04c-1.54,-0.43 -3.06,-0.94 -4.55,-1.56c-1.49,-0.61 -2.98,-1.24 -4.47,-1.88c-0.27,-0.11 -0.51,-0.23 -0.72,-0.36c-0.21,-0.13 -0.43,-0.28 -0.64,-0.44c-1.71,-1.06 -2.77,-2.53 -3.2,-4.39c-0.48,-2.24 -0.69,-4.47 -0.64,-6.71c0.05,-2.24 0.51,-4.47 1.36,-6.71c1.01,-2.61 2.41,-4.87 4.19,-6.79c1.78,-1.92 3.98,-3.43 6.59,-4.55c1.6,-0.69 3.3,-1.09 5.11,-1.2c2.98,-0.16 5.57,0.77 7.79,2.8c2.9,2.72 4.57,6.1 4.99,10.14c0.11,1.23 0.16,2.45 0.16,3.67l0,3.67c0,0.69 -0.01,1.37 -0.04,2.04c-0.03,0.67 -0.07,1.37 -0.12,2.12c0,0.69 -0.37,1.09 -1.11,1.2c-1.27,0.11 -2.55,0.17 -3.84,0.2c-1.29,0.03 -2.6,0.09 -3.92,0.2l-0.08,0c-0.05,0 -0.08,-0.01 -0.08,-0.04s-0.03,-0.04 -0.08,-0.04c-0.32,-0.37 -0.46,-0.76 -0.44,-1.16c0.03,-0.4 0.04,-0.81 0.04,-1.24c0.11,-1.7 0.25,-3.4 0.44,-5.07c0.18,-1.68 0.41,-3.34 0.67,-4.99c0.16,-1.12 0.24,-2.21 0.24,-3.27c0,-0.21 -0.05,-0.59 -0.16,-1.12c-0.11,-0.32 -0.32,-0.52 -0.63,-0.6c-0.32,-0.08 -0.61,0.01 -0.87,0.28c-0.48,0.48 -0.83,0.96 -1.04,1.44c-1.01,1.92 -1.69,3.87 -2.04,5.87c-0.35,2 -0.23,4.06 0.36,6.19c0.48,1.71 1.22,3.12 2.24,4.23c0.58,0.59 1.18,1.17 1.79,1.76c0.61,0.59 1.23,1.17 1.86,1.76c0.58,0.53 1.15,1.04 1.7,1.52s1.12,1.01 1.7,1.6c1.64,1.65 2.77,3.7 3.41,6.15c0.16,0.75 0.25,1.51 0.28,2.28c0.03,0.77 -0.07,1.53 -0.28,2.28c-0.64,2.5 -1.63,4.69 -2.97,6.55c-1.35,1.86 -3.29,3.28 -5.82,4.23c-1.86,0.75 -3.77,1.24 -5.74,1.48c-1.97,0.24 -3.97,0.2 -5.99,-0.12c-2.77,-0.43 -4.98,-1.56 -6.63,-3.4c-1.65,-1.84 -2.53,-4.06 -2.64,-6.67c0,-0.43 0.01,-1.12 0.04,-2.08c0.03,-0.96 0.08,-1.97 0.16,-3.04c0.08,-1.06 0.16,-2.05 0.24,-2.96c0.08,-0.9 0.15,-1.52 0.2,-1.84l0.02,0.02z" class="cls-4"/>
    <path stroke="null" id="svg_248" fill="#f39200" stroke-width="0px" d="m287.61592,66.41642c0.32,-1.76 0.51,-3.46 0.56,-5.11c0.05,-1.65 0.03,-3.33 -0.08,-5.03c0,-0.64 -0.05,-1.26 -0.16,-1.88c-0.11,-0.61 -0.21,-1.24 -0.32,-1.88c-0.05,-0.11 -0.12,-0.19 -0.2,-0.24c-0.08,-0.05 -0.17,-0.13 -0.28,-0.24c-0.53,0.91 -0.84,1.81 -0.92,2.72c-0.08,0.91 -0.17,1.81 -0.28,2.72c-0.11,0.91 -0.17,1.81 -0.2,2.72c-0.03,0.91 -0.07,1.84 -0.12,2.8c-0.85,0.27 -1.69,0.47 -2.52,0.6c-0.83,0.13 -1.67,0.25 -2.52,0.36c-0.8,0.16 -1.6,0.33 -2.4,0.52c-0.8,0.19 -1.65,0.25 -2.56,0.2c-0.11,-0.11 -0.2,-0.24 -0.28,-0.4c-0.08,-0.16 -0.15,-0.29 -0.2,-0.4c-0.27,-1.92 -0.4,-3.82 -0.4,-5.71s0.24,-3.77 0.72,-5.63c0.32,-1.38 0.88,-2.72 1.68,-3.99c1.86,-2.88 4.47,-4.34 7.83,-4.39c0.8,0 1.59,0.04 2.39,0.12c0.8,0.08 1.59,0.17 2.38,0.28c0.74,0.11 1.37,0.37 1.9,0.8c0.53,0.43 0.98,0.93 1.35,1.52c0.42,0.75 0.78,1.48 1.07,2.2c0.29,0.72 0.57,1.45 0.83,2.2c0.42,1.39 0.74,2.78 0.95,4.19c0.21,1.41 0.4,2.84 0.55,4.27c0.32,2.72 0.49,5.41 0.52,8.07c0.03,2.66 -0.01,5.35 -0.12,8.07c-0.05,0.91 -0.12,1.82 -0.2,2.76c-0.08,0.93 -0.15,1.88 -0.2,2.84c-0.05,0.85 -0.5,1.44 -1.35,1.76c-0.58,0.21 -1.15,0.39 -1.7,0.52c-0.55,0.13 -1.12,0.2 -1.7,0.2l-9.95,0c-0.75,-0.05 -1.51,-0.12 -2.28,-0.2c-0.77,-0.08 -1.53,-0.25 -2.28,-0.52c-1.12,-0.37 -2.08,-1.04 -2.88,-2c-1.06,-1.33 -1.73,-2.73 -2,-4.19c-0.27,-1.46 -0.27,-2.97 0,-4.51c0.11,-0.32 0.17,-0.64 0.2,-0.96c0.03,-0.32 0.09,-0.64 0.2,-0.96c0.75,-3.3 2.77,-5.11 6.07,-5.43c2.29,-0.21 4.61,0 6.95,0.64c0.27,0.11 0.55,0.21 0.84,0.32c0.29,0.11 0.65,0.21 1.08,0.32l0.03,-0.05zm-0.88,11.98c0.43,-0.9 0.64,-1.77 0.64,-2.6s-0.03,-1.64 -0.08,-2.44c0,-0.27 -0.12,-0.45 -0.36,-0.56c-0.24,-0.11 -0.47,-0.05 -0.68,0.16c-0.16,0.16 -0.31,0.32 -0.44,0.48c-0.13,0.16 -0.25,0.35 -0.36,0.56c-0.43,1.44 -0.24,2.72 0.56,3.83c0.05,0.11 0.15,0.2 0.28,0.28c0.13,0.08 0.28,0.17 0.44,0.28l0,0.01z" class="cls-4"/>
    <path stroke="null" id="svg_249" fill="#f39200" stroke-width="0px" d="m309.74592,48.04642c0.27,0.59 0.41,1.15 0.44,1.68c0.03,0.53 0.04,1.07 0.04,1.6c0.05,2.13 0.09,4.25 0.12,6.35c0.03,2.1 0.04,4.19 0.04,6.27c0,1.44 0.07,2.85 0.2,4.23c0.13,1.39 0.36,2.77 0.68,4.15c0.11,0.37 0.21,0.73 0.32,1.08c0.11,0.35 0.21,0.71 0.32,1.08c0.11,0.21 0.27,0.4 0.48,0.56c0.21,0.16 0.45,0.21 0.72,0.16c0.16,-0.05 0.32,-0.17 0.48,-0.36c0.16,-0.19 0.24,-0.36 0.24,-0.52c0.11,-0.59 0.23,-1.18 0.36,-1.8c0.13,-0.61 0.2,-1.21 0.2,-1.8c-0.05,-2.02 -0.09,-4.05 -0.12,-6.07c-0.03,-2.02 -0.07,-4.05 -0.12,-6.07c-0.05,-1.81 -0.11,-3.59 -0.16,-5.35c-0.05,-1.76 -0.11,-3.54 -0.16,-5.35l0,-1.28c0,-0.43 0.03,-0.85 0.08,-1.28c0.58,-0.21 1.46,-0.45 2.64,-0.72c1.17,-0.27 2.41,-0.49 3.71,-0.68c1.3,-0.19 2.54,-0.35 3.71,-0.48c1.17,-0.13 2.05,-0.2 2.64,-0.2c0.27,0.32 0.39,0.64 0.36,0.96c-0.03,0.32 -0.07,0.64 -0.12,0.96l-1.44,10.3c-0.27,2.24 -0.55,4.45 -0.84,6.63c-0.29,2.18 -0.6,4.39 -0.92,6.63c-0.16,0.96 -0.33,1.93 -0.52,2.92c-0.19,0.99 -0.47,1.93 -0.84,2.84c-0.69,1.81 -1.62,3.45 -2.8,4.91c-1.17,1.47 -2.61,2.7 -4.31,3.71c-3.04,1.7 -5.96,1.52 -8.79,-0.56c-0.59,-0.43 -1.11,-0.89 -1.56,-1.4c-0.45,-0.51 -0.89,-1.05 -1.32,-1.64c-0.8,-0.96 -1.45,-2 -1.96,-3.12c-0.51,-1.12 -0.97,-2.26 -1.4,-3.43c-0.53,-1.54 -0.98,-3.25 -1.36,-5.11c-0.37,-1.86 -0.64,-3.77 -0.8,-5.71c-0.16,-1.94 -0.24,-3.87 -0.24,-5.79s0.13,-3.73 0.4,-5.43c1.65,-0.9 5.51,-1.86 11.58,-2.88l0.02,0.01z" class="cls-4"/>
    <path stroke="null" id="svg_250" fill="#f39200" stroke-width="0px" d="m344.80592,65.93642c0.05,-0.43 0.09,-0.76 0.12,-1c0.03,-0.24 0.07,-0.47 0.12,-0.68c0.27,-1.38 0.47,-2.74 0.6,-4.07c0.13,-1.33 0.12,-2.69 -0.04,-4.07c-0.11,-0.64 -0.27,-1.22 -0.48,-1.76c-0.11,-0.37 -0.29,-0.56 -0.56,-0.56c-0.37,0 -0.67,0.16 -0.88,0.48c-0.27,0.48 -0.51,0.97 -0.72,1.48c-0.21,0.51 -0.37,1.03 -0.48,1.56c-0.16,0.69 -0.28,1.39 -0.36,2.08c-0.08,0.69 -0.15,1.39 -0.2,2.08c-0.16,3.41 -0.31,6.79 -0.44,10.14c-0.13,3.35 -0.25,6.74 -0.36,10.14c0,0.27 -0.03,0.56 -0.08,0.88c-0.05,0.32 -0.08,0.64 -0.08,0.96c-2.17,0.16 -4.29,0.23 -6.35,0.2c-2.06,-0.03 -4.1,-0.01 -6.11,0.04c-0.21,-0.8 -0.33,-2.13 -0.36,-3.99c-0.03,-1.86 0.01,-4.47 0.12,-7.83c0.05,-1.92 0.08,-3.83 0.08,-5.75s0.03,-3.83 0.08,-5.75c0.05,-1.97 0.07,-3.91 0.04,-5.83c-0.03,-1.92 0.01,-3.89 0.12,-5.91c1.8,-0.43 3.58,-0.8 5.36,-1.12c1.77,-0.32 3.53,-0.64 5.28,-0.96c0.21,-0.05 0.41,-0.05 0.59,0c0.18,0.05 0.41,0.08 0.68,0.08c0.26,0.59 0.33,1.15 0.2,1.68c-0.13,0.53 -0.15,1.07 -0.04,1.6c0.21,0.11 0.38,0.11 0.52,0c0.13,-0.11 0.25,-0.21 0.36,-0.32c0.69,-0.69 1.4,-1.33 2.12,-1.92c0.72,-0.59 1.5,-1.09 2.36,-1.52c1.54,-0.85 3.14,-1.28 4.79,-1.28c2.24,0.05 4.05,1.04 5.43,2.96c0.85,1.23 1.44,2.64 1.76,4.23c0.32,1.33 0.49,2.65 0.52,3.95c0.03,1.31 -0.04,2.62 -0.2,3.95c-0.11,0.85 -0.2,1.71 -0.28,2.56c-0.08,0.85 -0.33,1.73 -0.76,2.64c-2.02,0.21 -4.05,0.35 -6.07,0.4c-2.02,0.05 -4.15,0.13 -6.39,0.24l-0.01,-0.01z" class="cls-4"/>
    <path stroke="null" id="svg_251" fill="#f39200" stroke-width="0px" d="m389.30592,60.02642c-0.16,2.45 -0.31,4.81 -0.44,7.07c-0.13,2.26 -0.28,4.54 -0.44,6.83c-0.16,1.49 -0.4,2.9 -0.72,4.23c-0.59,2.34 -2.1,3.94 -4.55,4.79c-0.91,0.32 -1.81,0.56 -2.72,0.72c-1.6,0.27 -3.21,0.45 -4.83,0.56c-1.62,0.11 -3.29,0.11 -4.99,0c-0.53,-0.05 -1.07,-0.12 -1.6,-0.2c-0.53,-0.08 -1.04,-0.23 -1.52,-0.44c-1.12,-0.43 -2.05,-1.01 -2.8,-1.76c-0.75,-0.75 -1.25,-1.73 -1.52,-2.96c-0.37,-1.6 -0.71,-3.2 -1,-4.79c-0.29,-1.6 -0.57,-3.22 -0.84,-4.87c-0.32,-2.45 -0.48,-4.98 -0.48,-7.59c0,-1.06 0.05,-2.13 0.16,-3.2c0.11,-1.06 0.21,-2.13 0.32,-3.19c0.11,-0.85 0.32,-1.66 0.64,-2.44c0.32,-0.77 0.69,-1.53 1.12,-2.28c0.53,-1.01 1.38,-1.76 2.56,-2.24c1.01,-0.48 2.05,-0.88 3.12,-1.2c1.06,-0.32 2.13,-0.61 3.2,-0.88c1.81,-0.43 3.61,-0.78 5.39,-1.08c1.78,-0.29 3.61,-0.49 5.47,-0.6c0.21,0 0.37,-0.03 0.48,-0.08c1.54,-0.11 2.69,0.11 3.43,0.64c0.75,0.53 1.28,1.57 1.6,3.12c0.27,1.17 0.45,2.48 0.56,3.91c0.11,1.39 0.19,2.74 0.24,4.07c0.05,1.33 0.11,2.61 0.16,3.83l0,0.03zm-14.46,12.06c0.9,-0.21 1.56,-0.52 1.96,-0.92c0.4,-0.4 0.6,-1 0.6,-1.8c0,-0.9 0.04,-1.82 0.12,-2.76c0.08,-0.93 0.17,-1.85 0.28,-2.76c0.05,-0.59 0.09,-1.17 0.12,-1.76c0.03,-0.59 -0.04,-1.17 -0.2,-1.76c-0.43,0.11 -0.84,0.19 -1.24,0.24c-0.4,0.05 -0.81,0.13 -1.24,0.24c-0.27,0.05 -0.52,0.13 -0.76,0.24c-0.24,0.11 -0.52,0.21 -0.84,0.32c0.11,1.76 0.28,3.51 0.52,5.27c0.24,1.76 0.47,3.57 0.68,5.43l0,0.02z" class="cls-4"/>
   </g>
   <g stroke="null" id="svg_252">
    <path stroke="null" id="svg_253" stroke-width="0px" fill="#19472c" d="m393.02592,63.10642s7.4,4.23 7.76,11.4l0.35,5.88s0.41,3.17 -2.59,2.7l-5,-0.59s-4.23,-0.53 -3.41,-4.35l2.88,-15.04l0.01,0z" class="cls-1"/>
    <path stroke="null" id="svg_254" stroke-width="0px" fill="#19472c" d="m420.52592,72.50642s0.18,6.7 -0.24,8.58c0,0 0.18,1.18 2.53,1l4.11,-0.06s2.76,-0.71 2.76,-4.53l-0.18,-6.11s-7.17,1.12 -8.99,1.12l0.01,0z" class="cls-1"/>
    <path stroke="null" id="svg_255" fill="#f39200" stroke-width="0px" d="m398.67592,36.30642l1.94,-6.61s0.93,-3.26 2.82,-2.07c1.9,1.19 3.88,3.26 5.07,5.69c0,0 -4.5,4.14 -9.83,3l0,-0.01z" class="cls-4"/>
    <path stroke="null" id="svg_256" fill="#f39200" stroke-width="0px" d="m411.85592,31.41642l3,-5.64s1.41,-1.9 3,-0.26c1.59,1.63 2.78,3.97 2.47,4.89c0,0 -5.82,2.56 -8.46,1.01l-0.01,0z" class="cls-4"/>
    <path stroke="null" id="svg_257" fill="#f39200" stroke-width="0px" d="m424.99592,29.78642s-1.1,1.01 0.4,1.81l5.6,1.76s1.9,0.04 1.81,-2.16l-0.62,-3.88s-0.71,-1.94 -2.78,-0.53s-4.41,3 -4.41,3z" class="cls-4"/>
    <path stroke="null" id="svg_258" fill="#f39200" stroke-width="0px" d="m436.49592,35.59642s2.07,-1.59 6.74,-0.84c0,0 1.59,1.37 0.26,3.7c0,0 -1.19,3.04 -2.91,2.34c-1.72,-0.71 -3.83,-3.97 -4.1,-5.2l0.01,0z" class="cls-4"/>
    <path stroke="null" id="svg_259" fill="#f39200" stroke-width="0px" d="m444.95592,46.57642s2.47,-1.23 5.73,-0.48c0,0 1.37,2.12 -1.45,4.63c0,0 -0.84,0.71 -2.03,-0.88l-2.25,-3.26l0,-0.01z" class="cls-4"/>
    <path stroke="null" id="svg_260" stroke-width="0px" fill="#19472c" d="m460.95592,47.70642s1.12,8.99 -6.93,9.34c-8.05,0.35 -13.81,-12.63 -13.81,-12.63c0,0 -3.47,-9.99 -17.57,-9.99c0,0 -9.46,-0.94 -19.16,5.29c0,0 -5.52,3.23 -9.29,-2.53c-3.76,-5.76 -4,-9.05 -2,-14.22c2,-5.17 8.87,-11.28 19.8,-7.35l5,2.12s2.82,1.06 3.94,-1.23c1.12,-2.29 1,-6.11 -3,-8.23c0,0 -0.06,-6.23 -5.94,-8.11c0,0 -6.52,-1.35 -15.04,3.64c0,0 -17.75,7.17 -18.69,23.04c0,0 -1.76,16.78 15.78,33.7c0,0 9.96,7.55 9.61,17.31c0,0 -1.7,6.7 3.53,6.7l2.41,0s5.23,0.24 6.82,-3.64c1.59,-3.88 2.41,-6.58 1.29,-9.52c0,0 9.87,-0.53 13.69,-1.7c0,0 0.35,1.76 0.35,3.41l-0.06,6.17s-0.59,4.88 3.88,4.88c0,0 5.94,1.12 8.29,-3.7c2.35,-4.82 0.88,-11.52 0.88,-11.52c0,0 4.7,2.47 10.17,0.94c5.47,-1.53 15.4,-7.99 6.05,-22.15l0,-0.02zm-47.07,-41.49c0.91,0 1.65,0.74 1.65,1.65s-0.74,1.65 -1.65,1.65s-1.65,-0.74 -1.65,-1.65s0.74,-1.65 1.65,-1.65z" class="cls-1"/>
   </g>
  </g>
 </g>

</svg>