<svg width="20" height="20" xmlns="http://www.w3.org/2000/svg" fill="#000000">

 <g>
  <title>Layer 1</title>
  <path id="svg_1" d="m10,0c-5.5,0 -10,4.49 -10,10.02002c0,5 3.66,9.15 8.44,9.9l0,-7l-2.54,0l0,-2.9l2.54,0l0,-2.21002c0,-2.51 1.49,-3.89 3.78,-3.89c1.09,0 2.23,0.19 2.23,0.19l0,2.47l-1.26,0c-1.24,0 -1.63,0.77 -1.63,1.56002l0,1.88l2.78,0l-0.45,2.9l-2.33,0l0,7c2.3564,-0.3722 4.5022,-1.5745 6.0499,-3.39c1.5477,-1.8154 2.3955,-4.1244 2.3901,-6.51c0,-5.53002 -4.5,-10.02002 -10,-10.02002z"/>
 </g>
</svg>