<svg width="676" height="594" xmlns="http://www.w3.org/2000/svg" version="1.1" data-name="Livello 1">

 <g>
  <title>Layer 1</title>
  <g stroke="null" id="svg_315">
   <path stroke="null" id="svg_261" stroke-width="0px" fill="#19472c" d="m676.15008,165.73037c-0.2589,-6.84225 -0.51779,-14.01736 -0.7397,-21.48836c-0.2589,-7.76688 -0.66573,-15.75567 -1.18352,-23.78144c-0.55478,-9.06136 -1.59036,-17.56794 -3.03278,-25.22386c-2.69991,-15.27486 -8.24768,-26.29643 -16.9022,-33.65647c-8.09974,-6.84225 -18.41859,-10.28187 -30.69766,-10.28187c-1.84926,0 -3.77248,0.07397 -5.7327,0.22191l-6.36144,0.51779l-0.48081,0.29588c-8.24768,0.7397 -16.45838,1.88624 -24.41019,3.43962c-9.2093,1.77529 -18.52955,3.99439 -27.77583,6.58335l-0.22191,0.07397l-0.22191,0.07397c-5.58475,1.66433 -11.16951,3.4766 -16.56934,5.39983c-2.55197,0.92463 -5.06696,1.96021 -7.58195,3.06977c-0.51779,-5.39983 -1.7383,-10.61473 -3.69851,-15.57074c-2.62594,-6.69431 -6.36144,-12.6859 -11.05855,-17.78985c-4.80807,-5.2149 -10.42981,-9.35724 -16.75426,-12.39002c-6.9532,-3.32866 -14.4242,-4.99299 -22.26505,-4.99299s-15.01596,1.62735 -21.93218,4.88204c-5.4738,2.55197 -10.35584,5.99159 -14.60913,10.13393c-1.36845,-0.18493 -2.7369,-0.33287 -4.10535,-0.33287c-1.9972,0 -3.99439,0.18493 -5.95461,0.59176c-9.43121,1.25749 -18.93639,2.77388 -28.25664,4.54917c-9.35724,1.81227 -18.86242,3.66153 -28.44157,5.58475l-22.22806,4.43822l0,33.54551s2.29308,51.03948 2.29308,51.03948c-4.80807,0.62875 -9.65312,1.7383 -14.49817,3.29168c-7.72989,2.40403 -14.86802,5.80667 -21.34042,10.05996l0.40684,-20.82263l0.51779,-26.8512l-6.13953,-0.29588c1.40543,-2.44102 2.69991,-4.99299 3.7355,-7.69291c2.62594,-6.73129 3.95741,-13.90641 3.95741,-21.34042s-1.33146,-14.60913 -3.95741,-21.30344c-2.62594,-6.69431 -6.36144,-12.6859 -11.05855,-17.78985c-4.80807,-5.2149 -10.42981,-9.35724 -16.75426,-12.39002c-6.9532,-3.32866 -14.4242,-4.99299 -22.26505,-4.99299s-15.01596,1.62735 -21.93218,4.88204c-6.62034,3.10675 -12.39002,7.39703 -17.19809,12.75987c-2.62594,2.92183 -4.91902,6.17652 -6.87923,9.65312c-4.29028,-4.88204 -8.80246,-9.61613 -13.75847,-14.05435l-0.40684,-0.33287l-0.40684,-0.33287c-15.79265,-13.09274 -33.61948,-21.82123 -52.96271,-25.88959l-0.40684,-0.07397l-0.40684,-0.07397c-4.03138,-0.70272 -8.02577,-1.07257 -11.90921,-1.07257c-8.32165,0 -16.1625,1.66433 -23.3746,4.95601c-8.72849,3.58756 -17.34603,7.13813 -25.81562,10.57775c-8.54357,3.4766 -17.30904,7.13813 -26.14849,10.87363c-1.88624,0.77669 -3.77248,1.62735 -5.69571,2.55197c-0.66573,0.33287 -1.29448,0.62875 -1.88624,0.85066l-13.6845,5.4738l-3.10675,14.38722c-1.14654,5.28887 -1.7383,10.39282 -1.77529,15.27486c-0.51779,10.57775 -0.85066,21.26645 -0.9986,31.80721c-0.14794,10.13393 -0.33287,20.60072 -0.59176,31.03052l-0.40684,25.07592l-0.40684,24.85401c-0.2589,16.23647 -0.62875,32.76883 -1.18352,49.26419l0,0.14794s0,0.14794 0,0.14794l-0.59176,29.66207l-0.18493,8.98739l-0.55478,26.88819l-0.22191,11.76127l0,0.29588s0,0.29588 0,0.29588c0,3.10675 0.2589,6.2135 0.77669,9.2093l0,27.1101l27.62789,0c0.29588,0 0.59176,0 0.88764,0c-0.07397,0.14794 -0.11096,0.29588 -0.18493,0.44382c-5.32586,14.05435 -8.2107,28.21965 -8.54357,42.31099c-0.29588,13.12972 0.96161,26.3704 3.7355,39.42615l0,0.18493s0.07397,0.18493 0.07397,0.18493c1.66433,7.24909 4.4752,13.90641 8.39562,19.898l-3.80947,0.96161l-2.95881,17.93779c-0.2589,1.59036 -0.62875,4.32726 -1.25749,11.09554c-0.40684,4.54917 -0.81367,9.50518 -1.22051,14.86802c-0.40684,5.54777 -0.70272,10.98458 -0.85066,16.19949c-0.14794,5.10395 -0.22191,8.76548 -0.22191,10.98458l0,1.14654c0.81367,19.34322 7.54497,36.20844 20.04594,50.11485c12.46399,13.86942 28.92237,22.44997 48.93133,25.51974c6.9532,1.10955 14.09133,1.66433 21.11851,1.66433c5.28887,0 10.61473,-0.33287 15.86662,-0.96161c11.9462,-1.44242 23.70747,-4.4752 34.95095,-8.9504c15.60772,-5.95461 28.25664,-14.79405 37.76182,-26.25944c0.77669,1.07257 1.44242,2.18212 2.25609,3.18072c1.51639,2.07117 3.14374,4.03138 4.77108,5.88064c2.51499,2.81087 5.39983,5.39983 8.58055,7.69291c8.72849,6.43541 18.82543,9.87503 29.03333,9.87503c8.35864,0 16.56934,-2.21911 24.41019,-6.62034l0.29588,-0.14794l0.29588,-0.18493c1.29448,-0.77669 2.55197,-1.62735 3.80947,-2.478l1.62735,7.13813l22.70887,-0.70272c6.69431,-0.22191 13.57354,-0.29588 20.37881,-0.29588c3.36565,0 6.76828,0 10.17091,0.07397c1.66433,0 3.36565,0.03699 5.10395,0.03699c9.949,0 20.26785,-0.44382 30.69766,-1.33146l25.29783,-2.14514l0,-25.3718c0,-0.62875 0.03699,-1.22051 0.14794,-1.84926c0.44382,-3.21771 0.66573,-6.06556 0.70272,-8.83945c0.51779,-19.97197 1.14654,-40.38776 1.84926,-60.76657c0.07397,-2.66293 0.18493,-5.36284 0.29588,-8.06276c6.58335,-0.33287 12.98178,-0.59176 19.23227,-0.77669c1.55338,9.87503 3.14374,19.56513 4.77108,28.73745c1.77529,10.17091 3.88344,20.56373 6.17652,30.88258c2.66293,12.6859 8.13673,23.33762 16.19949,31.69626c6.99019,7.28607 15.6817,13.09274 25.74165,17.1611c4.95601,2.21911 10.24488,3.77248 15.6817,4.62314c3.77248,0.59176 7.471,1.07257 11.02157,1.44242l0.51779,0s0.51779,0.07397 0.51779,0.07397c5.65872,0.36985 11.35444,0.55478 16.9022,0.55478s11.16951,-0.18493 16.64331,-0.55478c10.61473,-0.70272 21.30344,-1.9972 31.77023,-3.80947l0.11096,0s0.11096,-0.03699 0.11096,-0.03699c6.91622,-1.25749 13.90641,-3.18072 20.78564,-5.69571c23.41159,-8.46959 38.87137,-25.51974 44.60407,-49.30118l0,-0.11096s0.07397,-0.11096 0.07397,-0.11096c2.14514,-9.35724 3.77248,-19.34322 4.84505,-29.73604l0,-0.48081s0.07397,-0.48081 0.07397,-0.48081c0.96161,-14.12832 1.84926,-28.51554 2.66293,-42.7918c0.77669,-14.05435 1.66433,-28.62649 2.62594,-43.82738l0.07397,-1.44242l-0.07397,-1.44242c-0.33287,-7.58195 -0.62875,-15.49677 -0.96161,-23.74445c-0.33287,-8.54357 -0.85066,-17.42 -1.47941,-26.33341c-0.7397,-10.05996 -2.03418,-19.49116 -3.84645,-27.96076c-2.18212,-10.83664 -5.80667,-19.60212 -10.87363,-26.48135c6.50938,-7.9518 11.09554,-17.64191 13.4256,-28.70046c1.7383,-8.65452 3.03278,-17.67889 3.88344,-27.03613l0,-0.44382s0.07397,-0.44382 0.07397,-0.44382c0.7397,-12.79686 1.44242,-25.81562 2.10815,-38.68645c0.62875,-12.6859 1.33146,-25.88959 2.07117,-39.64806l0.07397,-1.25749l0,-1.25749l0.11096,-0.18493zm-536.95012,-54.66402c0.66573,0.2589 1.29448,0.48081 1.96021,0.62875c-0.66573,-0.14794 -1.29448,-0.36985 -1.96021,-0.62875l0,0zm5.10395,66.6472l0,0c2.62594,-1.33146 4.88204,-2.58896 6.76828,-3.84645c-1.88624,1.25749 -4.14233,2.51499 -6.76828,3.84645zm28.92237,112.4348c0.40684,0 0.77669,0.03699 1.18352,0.03699c-1.44242,0 -2.88484,-0.03699 -4.36425,0c1.07257,-0.07397 2.14514,-0.07397 3.18072,-0.07397l0,0.03699zm-29.66207,-262.55744c0.36985,0 0.77669,0.03699 1.14654,0.03699c-1.51639,-0.03699 -3.03278,0 -4.43822,0.11096c1.07257,-0.11096 2.18212,-0.14794 3.29168,-0.14794zm-19.93499,436.46152c1.18352,0 2.36705,-0.07397 3.51359,-0.07397c2.29308,0 4.54917,0 6.76828,0.11096c-3.36565,-0.11096 -6.80526,-0.11096 -10.28187,-0.03699zm26.03753,102.67072c-0.33287,0 -0.62875,0 -0.96161,-0.03699c1.47941,0 2.95881,0 4.43822,-0.07397c-1.18352,0.03699 -2.33006,0.11096 -3.51359,0.11096l0.03699,0zm23.22666,-73.3785c1.59036,0 3.21771,-0.07397 4.77108,-0.18493c-1.59036,0.11096 -3.18072,0.18493 -4.77108,0.18493zm117.31683,-28.66348c0.07397,2.9958 0.18493,6.02858 0.2589,8.9504c-0.07397,-2.95881 -0.18493,-5.95461 -0.2589,-8.9504l0,0zm-4.69711,-49.44912c0,2.21911 -0.59176,4.54917 -1.70132,6.99019c1.14654,-2.44102 1.70132,-4.77108 1.70132,-6.99019zm-26.3704,-317.92418c-2.18212,-1.07257 -4.06836,-2.478 -5.84365,-4.06836l0,0c1.7383,1.59036 3.66153,2.9958 5.84365,4.06836l0,0zm-9.98599,166.87691c0.96161,0.07397 1.88624,0 2.77388,0c-0.40684,0 -0.81367,0.07397 -1.22051,0.07397c-0.51779,0 -1.03558,0 -1.55338,-0.03699l0,-0.03699zm7.2121,200.16353c0.85066,-0.22191 1.7383,-0.48081 2.69991,-0.70272l0,0c-0.96161,0.22191 -1.81227,0.48081 -2.69991,0.70272l0,0zm-10.65172,-404.58034c-1.33146,3.43962 -1.9972,7.10115 -2.03418,10.98458l0,0c0,-3.88344 0.70272,-7.54497 2.03418,-10.98458zm-3.99439,240.29239c-0.51779,-1.33146 -0.96161,-2.66293 -1.22051,-4.03138c0.2589,1.36845 0.70272,2.69991 1.22051,4.03138zm4.54917,7.43401c0.55478,0.59176 1.14654,1.14654 1.77529,1.66433c-0.62875,-0.51779 -1.22051,-1.03558 -1.77529,-1.66433l0,0zm4.2163,3.36565c-0.77669,-0.40684 -1.51639,-0.92463 -2.21911,-1.47941c0.70272,0.55478 1.44242,1.03558 2.21911,1.47941l0,0zm4.06836,219.06293l0,0c0.81367,2.03418 1.59036,4.10535 2.478,6.10255c-0.88764,-1.9972 -1.66433,-4.06836 -2.478,-6.10255zm25.48275,-261.18899c0.81367,-4.54917 1.29448,-8.91342 1.44242,-13.20369c-0.14794,4.25329 -0.62875,8.65452 -1.44242,13.20369zm2.81087,288.48402s-0.36985,-0.03699 -0.55478,-0.03699c0.51779,0 1.03558,0 1.59036,0c-0.33287,0 -0.70272,0.07397 -1.03558,0.07397l0,-0.03699zm95.42164,-394.00259c-1.9972,-0.55478 -4.06836,-0.92463 -6.13953,-1.18352c2.07117,0.2589 4.10535,0.62875 6.13953,1.18352zm-57.62283,23.78144l0,0c2.478,-3.7355 5.36284,-7.13813 8.69151,-10.24488c-3.32866,3.10675 -6.2135,6.50938 -8.69151,10.24488zm11.02157,96.12435c4.40123,5.43681 9.09834,10.13393 14.12832,14.12832c-5.02998,-3.95741 -9.72709,-8.69151 -14.12832,-14.12832l0,0zm3.55057,70.75255l0,0c0.11096,-3.80947 0.18493,-7.58195 0.36985,-11.46539c-0.18493,3.88344 -0.2589,7.65592 -0.36985,11.46539zm-0.81367,196.09516l0,0c0.22191,1.62735 0.48081,3.03278 0.7397,4.25329c-0.2589,-1.22051 -0.51779,-2.62594 -0.7397,-4.25329zm16.49537,-249.02088c3.92042,2.62594 8.09974,4.77108 12.46399,6.4724c-4.40123,-1.7383 -8.54357,-3.84645 -12.46399,-6.4724zm14.64611,-139.21203c0.40684,0 0.85066,-0.03699 1.25749,-0.03699c1.10955,0 2.18212,0.14794 3.29168,0.22191c-1.51639,-0.11096 -2.9958,-0.22191 -4.54917,-0.14794l0,-0.03699zm6.10255,392.26429c-1.55338,0 -3.14374,0 -4.69711,0c4.10535,0.07397 8.28467,0 12.46399,-0.14794c-2.58896,0.07397 -5.2149,0.18493 -7.76688,0.18493l0,-0.03699zm42.274,-217.36161c0.22191,-0.18493 0.44382,-0.36985 0.66573,-0.55478l0,0c-0.22191,0.18493 -0.44382,0.36985 -0.66573,0.55478zm70.3827,-33.5825c2.21911,-6.9532 4.4752,-13.90641 6.69431,-20.74866c-2.21911,6.84225 -4.43822,13.79545 -6.69431,20.74866l0,0zm5.91762,-61.28436l0,0c-1.70132,1.9972 -3.36565,4.03138 -4.84505,6.13953c1.47941,-2.10815 3.10675,-4.14233 4.84505,-6.13953zm-13.05575,17.97477c0.7397,-0.85066 1.25749,-1.44242 1.62735,-1.81227c-0.36985,0.36985 -0.88764,0.96161 -1.62735,1.81227l0,0zm0.40684,211.03715c1.36845,8.65452 2.77388,17.23507 4.25329,25.6307c-1.47941,-8.39562 -2.88484,-16.97617 -4.25329,-25.6307zm51.4833,-364.93228c2.03418,-2.07117 4.40123,-3.80947 7.17512,-5.14093c-2.77388,1.33146 -5.17792,3.06977 -7.17512,5.14093zm28.51554,378.13597l0,0c4.06836,-0.9986 7.28607,-2.33006 9.65312,-3.95741c-2.36705,1.66433 -5.58475,2.95881 -9.65312,3.95741zm22.26505,-249.35375c2.14514,-0.59176 3.99439,-1.33146 5.54777,-2.18212c-1.55338,0.85066 -3.40263,1.59036 -5.54777,2.18212zm40.20284,-155.52247c1.22051,-0.11096 2.36705,-0.14794 3.51359,-0.14794c0.33287,0 0.59176,0.03699 0.92463,0.03699c-1.40543,0 -2.84786,0 -4.40123,0.11096l-0.03699,0z" class="cls-1"/>
   <path stroke="null" id="svg_262" fill="#fff" stroke-width="0px" d="m647.70851,145.20362c-0.2589,-7.471 -0.62875,-15.12692 -1.14654,-22.93078c-0.51779,-8.09974 -1.40543,-15.4228 -2.66293,-22.04314c-1.51639,-8.69151 -4.03138,-14.53516 -7.58195,-17.53095c-3.55057,-2.9958 -8.98739,-4.17932 -16.31044,-3.58756c-0.51779,0.29588 -1.25749,0.44382 -2.25609,0.44382c-8.83945,0.59176 -17.53095,1.7383 -26.00055,3.36565c-8.46959,1.66433 -17.01316,3.66153 -25.59371,6.06556c-5.06696,1.51639 -10.13393,3.14374 -15.1639,4.95601c-5.06696,1.81227 -9.98599,4.03138 -14.79405,6.73129c-5.54777,2.69991 -9.61613,6.87923 -12.13112,12.57494c-2.03418,4.2163 -3.80947,8.46959 -5.32586,12.79686c-1.25749,3.55057 -2.07117,7.32306 -2.62594,11.16951l-1.33146,71.45527c0.11096,1.47941 0.29588,2.95881 0.44382,4.4752c3.40263,-0.22191 6.76828,0.22191 9.83804,1.44242c3.14374,1.25749 6.06556,3.18072 8.80246,5.69571l0.51779,0.51779c3.4766,3.66153 6.06556,8.06276 7.65592,13.05575c1.25749,3.62454 2.18212,7.65592 2.69991,11.72429c0.51779,3.95741 0.62875,7.9518 0.33287,11.87223c-0.2589,9.13533 -1.36845,18.12271 -3.21771,26.81422c-0.85066,3.92042 -1.84926,7.84085 -2.88484,11.72429c1.84926,1.25749 3.80947,2.40403 5.95461,3.36565c2.29308,1.22051 4.66013,2.03418 7.2121,2.478c2.51499,0.44382 5.06696,0.81367 7.58195,1.10955c8.09974,0.59176 15.97758,0.59176 23.70747,0c7.69291,-0.59176 15.34883,-1.62735 22.93078,-3.14374c4.29028,-0.88764 8.58055,-2.25609 12.90781,-4.03138c11.61333,-4.80807 18.82543,-13.79545 21.6363,-26.96216c1.51639,-7.471 2.66293,-15.4228 3.40263,-23.81842c0.7397,-12.87083 1.44242,-25.70467 2.07117,-38.42755c0.62875,-12.72288 1.33146,-26.00055 2.07117,-39.796c-0.2589,-6.87923 -0.51779,-14.09133 -0.7397,-21.56233zm-53.85035,43.12466c-0.51779,5.10395 -0.96161,10.28187 -1.33146,15.49677c-0.36985,5.25189 -0.55478,10.42981 -0.55478,15.49677c0,4.51219 -0.96161,7.87783 -2.84786,10.09694c-1.88624,2.25609 -4.99299,3.99439 -9.28327,5.17792c-0.9986,-10.50378 -2.07117,-20.67469 -3.21771,-30.54972c-1.14654,-9.87503 -1.96021,-19.78704 -2.478,-29.66207c1.51639,-0.59176 2.84786,-1.18352 3.99439,-1.81227c1.14654,-0.59176 2.33006,-1.03558 3.58756,-1.33146c2.03418,-0.59176 3.99439,-1.03558 5.88064,-1.33146c1.88624,-0.29588 3.84645,-0.7397 5.88064,-1.33146c0.7397,3.29168 1.07257,6.58335 0.96161,9.87503c-0.14794,3.29168 -0.33287,6.58335 -0.55478,9.87503l-0.03699,0z" class="cls-6"/>
   <path stroke="null" id="svg_263" fill="#fff" stroke-width="0px" d="m156.47201,240.0335c-0.51779,10.79966 -0.07397,21.45138 1.36845,31.95515c1.44242,10.50378 1.77529,21.04454 0.9986,31.54832c-2.88484,0.77669 -8.72849,1.77529 -17.53095,2.95881c-8.80246,1.18352 -18.27065,2.36705 -28.40458,3.55057c-10.13393,1.18352 -19.78704,2.10815 -28.99634,2.77388c-9.2093,0.66573 -15.38581,0.9986 -18.52955,0.9986c0,-1.29448 -0.11096,-2.69991 -0.40684,-4.14233c-0.2589,-1.44242 -0.40684,-2.95881 -0.40684,-4.54917c0.2589,-12.87083 0.51779,-25.77864 0.77669,-38.64946c0.2589,-12.87083 0.51779,-25.77864 0.77669,-38.64946c0.51779,-16.56934 0.92463,-33.13868 1.18352,-49.70802c0.2589,-16.56934 0.51779,-33.13868 0.77669,-49.70802c0.2589,-10.50378 0.44382,-20.97057 0.59176,-31.36339c0.11096,-10.39282 0.44382,-20.82263 0.9986,-31.36339c0,-3.14374 0.40684,-6.58335 1.18352,-10.24488c1.29448,-0.51779 2.62594,-1.10955 3.95741,-1.77529c1.29448,-0.66573 2.62594,-1.25749 3.95741,-1.77529c8.69151,-3.66153 17.34603,-7.28607 26.03753,-10.83664c8.69151,-3.55057 17.49397,-7.17512 26.40738,-10.83664c5.51078,-2.62594 11.9462,-3.29168 19.34322,-1.96021c14.97898,3.14374 28.66348,9.87503 41.01651,20.11991c9.98599,8.9504 18.19668,18.86242 24.6321,29.77303c6.43541,10.91061 11.24348,22.93078 14.38722,36.09749c4.99299,20.52675 4.7341,41.16445 -0.77669,61.91311c-2.10815,7.10115 -4.88204,13.86942 -8.28467,20.30484c-3.43962,6.43541 -7.76688,12.427 -13.01877,17.93779c-11.83524,13.16671 -26.96216,21.30344 -45.34377,24.44717c-1.03558,0.2589 -2.10815,0.48081 -3.14374,0.59176c-1.03558,0.14794 -2.25609,0.33287 -3.55057,0.59176zm-12.20509,-62.31994c5.25189,-2.62594 8.98739,-5.14093 11.24348,-7.50798c2.21911,-2.36705 3.62454,-5.51078 4.14233,-9.46819c0.77669,-8.9504 -0.14794,-17.34603 -2.77388,-25.22386c-2.62594,-7.87783 -6.32446,-15.38581 -11.05855,-22.48696c-0.51779,-0.51779 -1.44242,-0.85066 -2.77388,-0.9986c-1.33146,-0.14794 -2.62594,-0.44382 -3.95741,-0.9986c0.77669,11.57635 1.36845,22.81983 1.77529,33.73044c0.40684,10.91061 1.51639,21.8952 3.36565,32.91677l0.03699,0.03699z" class="cls-6"/>
   <path stroke="null" id="svg_264" fill="#fff" stroke-width="0px" d="m294.09368,126.63709l-1.44242,76.44826l-36.46734,1.03558l6.39843,-49.04228l-20.41579,3.29168l0.40684,-34.21125l51.52029,2.478zm0,-66.86912c-1.36845,-3.51359 -3.25469,-6.54637 -5.65872,-9.17231c-2.40403,-2.62594 -5.17792,-4.66013 -8.35864,-6.17652c-3.18072,-1.51639 -6.58335,-2.25609 -10.31885,-2.25609s-6.99019,0.7397 -10.2079,2.25609c-3.21771,1.51639 -5.99159,3.58756 -8.35864,6.17652c-2.33006,2.62594 -4.17932,5.65872 -5.54777,9.17231c-1.36845,3.51359 -2.07117,7.24909 -2.07117,11.24348s0.70272,7.72989 2.07117,11.24348c1.36845,3.51359 3.21771,6.54637 5.54777,9.17231c2.33006,2.62594 5.10395,4.66013 8.35864,6.17652c3.21771,1.51639 6.62034,2.25609 10.2079,2.25609s7.13813,-0.7397 10.31885,-2.25609c3.14374,-1.51639 5.95461,-3.58756 8.35864,-6.17652c2.40403,-2.62594 4.29028,-5.65872 5.65872,-9.17231c1.36845,-3.51359 2.07117,-7.24909 2.07117,-11.24348s-0.70272,-7.72989 -2.07117,-11.24348z" class="cls-6"/>
   <path stroke="null" id="svg_265" fill="#fff" stroke-width="0px" d="m504.68702,132.3328l-1.44242,76.44826l-36.46734,1.03558l6.39843,-49.04228l-20.41579,3.29168l0.40684,-34.21125l51.52029,2.478zm0,-66.86912c-1.36845,-3.51359 -3.25469,-6.54637 -5.65872,-9.17231c-2.40403,-2.62594 -5.17792,-4.66013 -8.35864,-6.17652c-3.18072,-1.51639 -6.58335,-2.25609 -10.31885,-2.25609s-6.99019,0.7397 -10.2079,2.25609c-3.21771,1.51639 -5.99159,3.58756 -8.35864,6.17652c-2.33006,2.62594 -4.17932,5.65872 -5.54777,9.17231c-1.36845,3.51359 -2.07117,7.24909 -2.07117,11.24348s0.70272,7.72989 2.07117,11.24348c1.36845,3.51359 3.21771,6.54637 5.54777,9.17231c2.33006,2.62594 5.10395,4.66013 8.35864,6.17652c3.21771,1.51639 6.62034,2.25609 10.2079,2.25609s7.13813,-0.7397 10.31885,-2.25609c3.14374,-1.51639 5.95461,-3.58756 8.35864,-6.17652c2.40403,-2.62594 4.29028,-5.65872 5.65872,-9.17231c1.36845,-3.51359 2.07117,-7.24909 2.07117,-11.24348s-0.70272,-7.72989 -2.07117,-11.24348z" class="cls-6"/>
   <path stroke="null" id="svg_266" fill="#fff" stroke-width="0px" d="m280.00235,268.73396c0.81367,-4.54917 1.29448,-8.91342 1.44242,-13.20369c0.14794,-4.25329 0.07397,-8.58055 -0.22191,-12.98178c0,-1.66433 -0.14794,-3.25469 -0.40684,-4.84505c-0.2589,-1.59036 -0.55478,-3.18072 -0.81367,-4.84505c-0.14794,-0.2589 -0.29588,-0.48081 -0.51779,-0.62875c-0.22191,-0.14794 -0.44382,-0.33287 -0.70272,-0.62875c-1.36845,2.33006 -2.18212,4.66013 -2.36705,6.99019c-0.22191,2.33006 -0.44382,4.66013 -0.70272,6.99019c-0.2589,2.33006 -0.44382,4.66013 -0.51779,6.99019c-0.07397,2.33006 -0.18493,4.7341 -0.29588,7.2121c-2.18212,0.70272 -4.36425,1.22051 -6.50938,1.55338c-2.14514,0.33287 -4.29028,0.66573 -6.50938,0.92463c-2.07117,0.40684 -4.10535,0.85066 -6.17652,1.33146c-2.07117,0.48081 -4.25329,0.66573 -6.58335,0.51779c-0.2589,-0.2589 -0.51779,-0.62875 -0.70272,-1.03558c-0.22191,-0.40684 -0.36985,-0.7397 -0.51779,-1.03558c-0.70272,-4.95601 -1.03558,-9.87503 -1.03558,-14.72008s0.62875,-9.72709 1.84926,-14.53516c0.81367,-3.58756 2.25609,-6.99019 4.32726,-10.31885c4.80807,-7.43401 11.53936,-11.20649 20.19388,-11.31745c2.07117,0 4.10535,0.11096 6.17652,0.29588c2.07117,0.22191 4.10535,0.44382 6.13953,0.70272c1.92323,0.29588 3.55057,0.96161 4.91902,2.07117c1.36845,1.10955 2.51499,2.40403 3.4766,3.92042c1.07257,1.92323 1.9972,3.80947 2.77388,5.65872c0.7397,1.84926 1.47941,3.7355 2.14514,5.65872c1.07257,3.58756 1.88624,7.17512 2.44102,10.83664c0.55478,3.62454 1.03558,7.32306 1.44242,11.02157c0.81367,6.99019 1.25749,13.94339 1.33146,20.82263c0.07397,6.87923 0,13.79545 -0.29588,20.82263c-0.14794,2.33006 -0.29588,4.69711 -0.51779,7.10115c-0.22191,2.40403 -0.36985,4.84505 -0.51779,7.32306c-0.14794,2.18212 -1.29448,3.69851 -3.4766,4.54917c-1.51639,0.55478 -2.95881,0.9986 -4.40123,1.33146c-1.44242,0.33287 -2.88484,0.51779 -4.40123,0.51779l-25.66768,0c-1.92323,-0.14794 -3.88344,-0.29588 -5.88064,-0.51779c-1.9972,-0.22191 -3.95741,-0.66573 -5.88064,-1.33146c-2.88484,-0.96161 -5.36284,-2.66293 -7.43401,-5.14093c-2.7369,-3.43962 -4.4752,-7.02717 -5.14093,-10.83664c-0.70272,-3.77248 -0.70272,-7.65592 0,-11.65032c0.29588,-0.81367 0.44382,-1.66433 0.51779,-2.478c0.07397,-0.81367 0.2589,-1.66433 0.51779,-2.478c1.92323,-8.50658 7.13813,-13.20369 15.64471,-14.01736c5.91762,-0.55478 11.87223,0 17.93779,1.66433c0.70272,0.2589 1.40543,0.55478 2.18212,0.81367c0.7397,0.2589 1.66433,0.55478 2.77388,0.81367l-0.03699,0.11096zm-2.25609,30.91957c1.10955,-2.33006 1.66433,-4.54917 1.66433,-6.69431s-0.07397,-4.2163 -0.22191,-6.28747c0,-0.70272 -0.29588,-1.18352 -0.92463,-1.44242c-0.62875,-0.2589 -1.22051,-0.14794 -1.7383,0.40684c-0.40684,0.40684 -0.77669,0.81367 -1.14654,1.22051c-0.33287,0.40684 -0.66573,0.88764 -0.92463,1.44242c-1.10955,3.69851 -0.62875,6.99019 1.44242,9.87503c0.14794,0.2589 0.36985,0.51779 0.7397,0.70272c0.33287,0.22191 0.70272,0.44382 1.14654,0.7397l-0.03699,0.03699z" class="cls-6"/>
   <path stroke="null" id="svg_267" fill="#fff" stroke-width="0px" d="m382.52513,72.71277c9.54216,-1.88624 18.97337,-3.7355 28.25664,-5.54777c9.28327,-1.77529 18.60352,-3.29168 27.88679,-4.4752c0.70272,-0.22191 1.44242,-0.22191 2.14514,0c0.70272,0.22191 1.55338,0.59176 2.51499,1.07257c0.22191,1.44242 0.40684,2.84786 0.51779,4.29028c0.11096,1.44242 0.18493,2.7369 0.18493,3.92042l-6.43541,133.0725l-2.14514,56.88313c-0.22191,2.84786 -0.48081,5.7327 -0.70272,8.58055c-0.22191,2.84786 -0.22191,5.7327 0,8.58055c0.22191,4.77108 -0.51779,8.58055 -2.33006,11.42841c-1.77529,2.84786 -4.10535,5.4738 -6.99019,7.87783c-10.24488,9.28327 -22.19108,13.94339 -35.76462,13.94339c-14.79405,-0.22191 -27.73885,-4.06836 -38.7974,-11.46539c-11.09554,-7.39703 -20.82263,-18.12271 -29.14428,-32.17706c-7.39703,-12.39002 -11.31745,-26.48135 -11.79826,-42.20003c-0.22191,-6.65732 0.48081,-13.35163 2.14514,-20.04594c1.66433,-6.65732 4.2163,-12.75987 7.69291,-18.23367c3.43962,-5.4738 7.80386,-10.31885 13.05575,-14.49817c5.25189,-4.17932 11.31745,-7.32306 18.23367,-9.46819c9.54216,-3.10675 18.60352,-3.43962 27.18407,-1.07257c1.18352,0.48081 2.25609,0.70272 3.21771,0.70272l2.84786,0c1.18352,-1.66433 1.7383,-3.29168 1.62735,-4.84505c-0.11096,-1.55338 -0.18493,-3.14374 -0.18493,-4.84505l-3.21771,-71.89909l0,-9.65312l0,0.07397zm6.06556,198.20331l0,-45.41774c-0.48081,-2.62594 -1.92323,-3.43962 -4.29028,-2.51499c-2.14514,0.96161 -3.62454,2.33006 -4.4752,4.10535c-0.85066,1.77529 -1.36845,3.99439 -1.59036,6.62034c-0.70272,9.32025 0.70272,18.23367 4.29028,26.81422c0.70272,1.66433 1.44242,3.40263 2.14514,5.17792s2.03418,3.51359 3.92042,5.17792l0,0.03699z" class="cls-6"/>
   <path stroke="null" id="svg_268" fill="#e84238" stroke-width="0px" d="m109.57487,226.94076c18.75146,-3.84645 17.60492,9.949 17.60492,9.949l18.38161,95.7545c3.43962,22.59791 -18.75146,28.73745 -18.75146,28.73745c0,0 -57.84474,16.45838 -85.8055,22.22806c-27.96076,5.7327 -34.47014,-17.23507 -34.47014,-17.23507c0,0 -5.7327,-83.88228 -6.50938,-102.63374c-0.77669,-18.75146 16.86522,-20.30484 16.86522,-20.30484l24.89099,-4.2163l67.79374,-12.24208l0,-0.03699z" class="cls-5"/>
   <g stroke="null" id="svg_269">
    <path stroke="null" id="svg_270" fill="#fff" stroke-width="0px" d="m61.38324,302.98219l9.39422,41.38636l-19.49116,5.39983l-3.06977,-27.25804l-10.54076,4.4752l-4.32726,-18.49257l28.07171,-5.51078l-0.03699,0zm-8.91342,-36.02352c-1.22051,-1.70132 -2.62594,-3.10675 -4.25329,-4.17932c-1.62735,-1.07257 -3.40263,-1.81227 -5.32586,-2.21911c-1.88624,-0.40684 -3.84645,-0.33287 -5.84365,0.14794s-3.66153,1.33146 -5.17792,2.58896c-1.55338,1.25749 -2.77388,2.7369 -3.66153,4.43822c-0.92463,1.70132 -1.51639,3.62454 -1.77529,5.69571c-0.2589,2.07117 -0.14794,4.17932 0.36985,6.32446s1.40543,4.06836 2.58896,5.76968c1.22051,1.70132 2.62594,3.10675 4.2163,4.2163c1.59036,1.10955 3.36565,1.84926 5.32586,2.21911c1.92323,0.36985 3.88344,0.33287 5.80667,-0.14794s3.7355,-1.36845 5.25189,-2.58896c1.51639,-1.22051 2.7369,-2.69991 3.66153,-4.43822c0.96161,-1.7383 1.55338,-3.62454 1.84926,-5.69571s0.14794,-4.17932 -0.36985,-6.32446c-0.51779,-2.14514 -1.40543,-4.06836 -2.58896,-5.76968l-0.07397,-0.03699z" class="cls-6"/>
    <path stroke="null" id="svg_271" fill="#fff" stroke-width="0px" d="m95.8164,333.7908c-2.10815,1.36845 -4.10535,2.84786 -5.99159,4.36425c-1.88624,1.51639 -3.95741,2.95881 -6.13953,4.29028c-0.2589,-0.40684 -0.44382,-0.7397 -0.59176,-1.03558c-0.14794,-0.2589 -0.2589,-0.59176 -0.36985,-0.96161c-0.7397,-2.10815 -1.47941,-4.2163 -2.21911,-6.32446c-0.7397,-2.14514 -1.44242,-4.25329 -2.10815,-6.36144l-10.54076,-32.73184c-1.03558,-3.29168 -2.07117,-6.54637 -3.10675,-9.76407c-1.03558,-3.25469 -2.07117,-6.50938 -3.10675,-9.76407l-0.62875,-2.55197c1.92323,-1.40543 3.95741,-2.62594 6.10255,-3.69851c2.14514,-1.03558 4.2163,-2.10815 6.2135,-3.25469c2.07117,-1.14654 4.14233,-2.25609 6.25049,-3.36565c2.07117,-1.10955 4.25329,-2.14514 6.54637,-3.06977c0.22191,0.59176 0.40684,1.07257 0.55478,1.44242c0.14794,0.40684 0.2589,0.77669 0.33287,1.14654l1.47941,10.24488l3.51359,28.44157c0.66573,5.25189 1.29448,10.46679 1.92323,15.64471c0.62875,5.17792 1.25749,10.39282 1.92323,15.64471c0.07397,0.36985 0.11096,0.92463 0.03699,1.62735l-0.07397,0.03699z" class="cls-6"/>
   </g>
   <path stroke="null" id="svg_272" fill="#f39200" stroke-width="0px" d="m90.30562,467.23315c4.17932,-1.03558 10.54076,-1.88624 19.04734,-2.55197c8.50658,-0.66573 16.68029,-0.85066 24.52114,-0.59176c2.10815,1.03558 3.4766,2.44102 4.10535,4.10535c0.66573,1.70132 1.25749,3.4766 1.77529,5.28887c4.95601,12.31605 14.23928,18.82543 27.8498,19.6391c3.40263,0.2589 6.73129,0.2589 10.02297,0c3.25469,-0.2589 6.73129,-0.66573 10.39282,-1.18352c1.29448,0 2.478,-0.33287 3.51359,-0.9986c1.03558,-0.66573 2.21911,-1.36845 3.51359,-2.14514c1.29448,-0.51779 1.9972,-1.44242 2.14514,-2.7369c0.14794,-1.29448 -0.18493,-2.62594 -0.96161,-3.92042c-1.29448,-2.36705 -2.84786,-4.25329 -4.66013,-5.69571c-1.81227,-1.44242 -3.77248,-2.81087 -5.84365,-4.10535c-4.99299,-2.88484 -10.02297,-5.2149 -15.12692,-7.06416c-5.10395,-1.81227 -10.28187,-3.55057 -15.49677,-5.10395c-7.58195,-2.10815 -15.05295,-4.66013 -22.376,-7.65592c-7.32306,-2.9958 -14.64611,-6.06556 -21.96917,-9.2093c-1.33146,-0.51779 -2.478,-1.10955 -3.55057,-1.77529c-1.03558,-0.66573 -2.10815,-1.36845 -3.14374,-2.14514c-8.39562,-5.2149 -13.61053,-12.427 -15.6817,-21.59932c-2.36705,-10.98458 -3.40263,-21.96917 -3.14374,-32.95375c0.2589,-10.98458 2.478,-21.96917 6.65732,-32.95375c4.95601,-12.83384 11.83524,-23.92938 20.60072,-33.36059c8.76548,-9.43121 19.56513,-16.86522 32.36199,-22.376c7.84085,-3.40263 16.23647,-5.36284 25.1129,-5.88064c14.60913,-0.77669 27.369,3.80947 38.27961,13.72148c14.27626,13.35163 22.44997,29.95796 24.52114,49.85596c0.51779,6.02858 0.77669,12.02017 0.77669,18.04874l0,18.04874c0,3.40263 -0.07397,6.73129 -0.18493,10.02297c-0.14794,3.29168 -0.33287,6.73129 -0.59176,10.39282c0,3.40263 -1.81227,5.36284 -5.43681,5.88064c-6.2135,0.51779 -12.53796,0.85066 -18.86242,0.9986c-6.36144,0.14794 -12.79686,0.44382 -19.26925,0.9986l-0.40684,0c-0.2589,0 -0.36985,-0.07397 -0.36985,-0.18493s-0.14794,-0.18493 -0.40684,-0.18493c-1.55338,-1.81227 -2.25609,-3.7355 -2.14514,-5.69571c0.14794,-1.96021 0.18493,-3.99439 0.18493,-6.06556c0.51779,-8.35864 1.22051,-16.68029 2.14514,-24.92798c0.92463,-8.24768 1.9972,-16.4214 3.32866,-24.52114c0.77669,-5.51078 1.14654,-10.83664 1.14654,-16.08853c0,-1.03558 -0.2589,-2.88484 -0.77669,-5.51078c-0.51779,-1.55338 -1.55338,-2.55197 -3.10675,-2.95881c-1.55338,-0.40684 -2.9958,0.07397 -4.29028,1.36845c-2.36705,2.36705 -4.06836,4.69711 -5.10395,7.06416c-4.95601,9.43121 -8.32165,19.04734 -10.02297,28.8484c-1.70132,9.80106 -1.10955,19.93499 1.77529,30.40178c2.36705,8.39562 6.02858,15.31184 10.98458,20.78564c2.88484,2.88484 5.80667,5.76968 8.80246,8.61754c2.9958,2.88484 6.02858,5.76968 9.13533,8.61754c2.84786,2.62594 5.65872,5.10395 8.35864,7.471s5.51078,4.99299 8.35864,7.84085c8.02577,8.09974 13.61053,18.19668 16.75426,30.21685c0.77669,3.66153 1.22051,7.39703 1.36845,11.16951c0.11096,3.80947 -0.33287,7.50798 -1.36845,11.16951c-3.10675,12.31605 -7.98879,23.04174 -14.60913,32.17706c-6.62034,9.17231 -16.1625,16.08853 -28.58951,20.78564c-9.13533,3.66153 -18.52955,6.06556 -28.21965,7.24909c-9.6901,1.18352 -19.49116,0.9986 -29.44016,-0.59176c-13.61053,-2.10815 -24.48416,-7.65592 -32.5839,-16.68029c-8.09974,-9.02437 -12.427,-19.93499 -12.9448,-32.76883c0,-2.10815 0.07397,-5.51078 0.18493,-10.2079c0.14794,-4.69711 0.40684,-9.6901 0.77669,-14.90501c0.40684,-5.2149 0.77669,-10.05996 1.18352,-14.53516c0.40684,-4.43822 0.7397,-7.471 0.9986,-9.02437l0,0.07397z" class="cls-4"/>
   <path stroke="null" id="svg_273" fill="#f39200" stroke-width="0px" d="m286.1049,389.93423c0.85066,-4.7341 1.36845,-9.32025 1.51639,-13.75847c0.14794,-4.43822 0.07397,-8.9504 -0.22191,-13.53656c0,-1.7383 -0.14794,-3.40263 -0.44382,-5.06696c-0.29588,-1.66433 -0.59176,-3.32866 -0.85066,-5.06696c-0.14794,-0.29588 -0.33287,-0.51779 -0.55478,-0.62875c-0.22191,-0.14794 -0.48081,-0.36985 -0.7397,-0.62875c-1.44242,2.44102 -2.25609,4.88204 -2.478,7.32306c-0.22191,2.44102 -0.48081,4.88204 -0.7397,7.32306c-0.29588,2.44102 -0.48081,4.88204 -0.55478,7.32306c-0.07397,2.44102 -0.18493,4.95601 -0.33287,7.54497c-2.29308,0.70272 -4.54917,1.25749 -6.76828,1.62735c-2.21911,0.36985 -4.4752,0.66573 -6.76828,0.96161c-2.14514,0.44382 -4.29028,0.88764 -6.43541,1.40543c-2.14514,0.51779 -4.43822,0.66573 -6.87923,0.55478c-0.29588,-0.29588 -0.55478,-0.62875 -0.7397,-1.07257c-0.22191,-0.44382 -0.40684,-0.77669 -0.55478,-1.07257c-0.70272,-5.17792 -1.07257,-10.28187 -1.07257,-15.38581s0.62875,-10.13393 1.92323,-15.1639c0.85066,-3.7355 2.36705,-7.32306 4.51219,-10.76267c5.02998,-7.72989 12.05715,-11.6873 21.08152,-11.83524c2.14514,0 4.29028,0.11096 6.43541,0.33287c2.14514,0.22191 4.29028,0.48081 6.39843,0.7397c1.9972,0.29588 3.69851,0.9986 5.10395,2.14514c1.40543,1.14654 2.62594,2.51499 3.62454,4.06836c1.14654,1.9972 2.10815,3.99439 2.88484,5.91762c0.77669,1.92323 1.51639,3.92042 2.21911,5.91762c1.14654,3.7355 1.9972,7.50798 2.55197,11.28046c0.55478,3.80947 1.07257,7.61894 1.47941,11.50238c0.85066,7.32306 1.33146,14.57214 1.40543,21.71027c0.07397,7.17512 -0.03699,14.4242 -0.33287,21.71027c-0.14794,2.44102 -0.33287,4.91902 -0.55478,7.43401c-0.22191,2.51499 -0.40684,5.06696 -0.55478,7.61894c-0.14794,2.29308 -1.36845,3.88344 -3.62454,4.7341c-1.55338,0.59176 -3.10675,1.03558 -4.58616,1.40543c-1.47941,0.36985 -3.03278,0.55478 -4.58616,0.55478l-26.77723,0c-1.9972,-0.14794 -4.06836,-0.33287 -6.13953,-0.55478c-2.07117,-0.22191 -4.10535,-0.66573 -6.13953,-1.40543c-2.9958,-0.9986 -5.58475,-2.81087 -7.72989,-5.36284c-2.88484,-3.58756 -4.66013,-7.36004 -5.36284,-11.28046c-0.70272,-3.95741 -0.70272,-7.98879 0,-12.16811c0.29588,-0.85066 0.48081,-1.7383 0.55478,-2.58896c0.07397,-0.85066 0.2589,-1.7383 0.55478,-2.58896c1.9972,-8.87643 7.471,-13.75847 16.34743,-14.60913c6.17652,-0.55478 12.39002,0 18.71448,1.7383c0.70272,0.29588 1.47941,0.59176 2.25609,0.85066c0.77669,0.29588 1.7383,0.59176 2.92183,0.85066l0.03699,-0.03699zm-2.36705,32.28802c1.14654,-2.44102 1.7383,-4.77108 1.7383,-6.99019s-0.07397,-4.40123 -0.22191,-6.54637c0,-0.70272 -0.33287,-1.22051 -0.96161,-1.51639c-0.62875,-0.29588 -1.25749,-0.14794 -1.81227,0.44382c-0.44382,0.44382 -0.81367,0.85066 -1.18352,1.29448c-0.36985,0.44382 -0.66573,0.92463 -0.96161,1.51639c-1.14654,3.88344 -0.62875,7.32306 1.51639,10.31885c0.14794,0.29588 0.40684,0.55478 0.7397,0.7397c0.36985,0.22191 0.7397,0.48081 1.18352,0.7397l-0.03699,0z" class="cls-4"/>
   <path stroke="null" id="svg_274" fill="#f39200" stroke-width="0px" d="m279.04074,459.68818c0.70272,1.59036 1.10955,3.06977 1.18352,4.51219c0.07397,1.44242 0.11096,2.88484 0.11096,4.29028c0.14794,5.7327 0.2589,11.42841 0.33287,17.08713c0.07397,5.65872 0.11096,11.28046 0.11096,16.9022c0,3.88344 0.18493,7.65592 0.55478,11.39142c0.36985,3.7355 0.96161,7.471 1.81227,11.16951c0.29588,0.9986 0.55478,1.96021 0.85066,2.92183c0.29588,0.92463 0.55478,1.88624 0.85066,2.88484c0.29588,0.59176 0.70272,1.07257 1.29448,1.51639c0.55478,0.44382 1.22051,0.59176 1.92323,0.44382c0.44382,-0.14794 0.85066,-0.48081 1.29448,-0.96161c0.44382,-0.51779 0.62875,-0.96161 0.62875,-1.40543c0.29588,-1.59036 0.59176,-3.18072 0.96161,-4.84505c0.36985,-1.66433 0.55478,-3.25469 0.55478,-4.84505c-0.14794,-5.43681 -0.2589,-10.91061 -0.33287,-16.34743c-0.07397,-5.43681 -0.18493,-10.91061 -0.33287,-16.34743c-0.14794,-4.88204 -0.29588,-9.6901 -0.44382,-14.4242c-0.14794,-4.7341 -0.29588,-9.54216 -0.44382,-14.4242l0,-3.43962c0,-1.14654 0.07397,-2.29308 0.22191,-3.43962c1.59036,-0.55478 3.95741,-1.22051 7.10115,-1.92323c3.14374,-0.70272 6.4724,-1.33146 9.98599,-1.81227c3.51359,-0.51779 6.84225,-0.92463 9.98599,-1.29448c3.14374,-0.36985 5.51078,-0.55478 7.10115,-0.55478c0.70272,0.85066 1.03558,1.7383 0.96161,2.58896c-0.07397,0.85066 -0.18493,1.7383 -0.33287,2.58896l-3.88344,27.73885c-0.70272,6.02858 -1.47941,11.98318 -2.25609,17.86382c-0.77669,5.88064 -1.62735,11.83524 -2.478,17.86382c-0.44382,2.58896 -0.88764,5.2149 -1.40543,7.84085c-0.51779,2.66293 -1.25749,5.2149 -2.25609,7.61894c-1.84926,4.88204 -4.36425,9.28327 -7.54497,13.24068c-3.14374,3.95741 -7.02717,7.28607 -11.61333,9.98599c-8.17371,4.58616 -16.05155,4.10535 -23.67048,-1.51639c-1.59036,-1.14654 -2.9958,-2.40403 -4.17932,-3.77248c-1.22051,-1.36845 -2.40403,-2.84786 -3.55057,-4.40123c-2.14514,-2.58896 -3.92042,-5.36284 -5.25189,-8.39562c-1.36845,-2.9958 -2.62594,-6.10255 -3.77248,-9.24628c-1.44242,-4.14233 -2.66293,-8.72849 -3.66153,-13.75847c-0.9986,-5.02998 -1.7383,-10.13393 -2.14514,-15.38581c-0.44382,-5.2149 -0.62875,-10.42981 -0.62875,-15.60772s0.36985,-10.02297 1.07257,-14.60913c4.43822,-2.44102 14.83104,-5.02998 31.17846,-7.72989l0.11096,0.03699z" class="cls-4"/>
   <path stroke="null" id="svg_275" fill="#fff" stroke-width="0px" d="m533.31351,247.02369c-0.40684,-3.29168 -1.18352,-6.50938 -2.25609,-9.65312c-1.07257,-3.36565 -2.77388,-6.25049 -5.06696,-8.65452c-1.66433,-1.55338 -3.43962,-2.69991 -5.2149,-3.43962c-1.81227,-0.70272 -3.92042,-0.88764 -6.32446,-0.55478c-2.03418,0.2589 -3.92042,0.7397 -5.58475,1.51639c-1.70132,0.77669 -3.36565,1.66433 -5.06696,2.62594c-2.29308,1.55338 -4.40123,3.25469 -6.32446,5.06696c-1.92323,1.81227 -3.77248,3.7355 -5.58475,5.76968c-2.40403,2.66293 -4.58616,5.39983 -6.58335,8.2107c-1.9972,2.81087 -3.88344,5.80667 -5.69571,8.91342c-0.2589,0.36985 -0.55478,0.70272 -0.88764,1.07257c-0.36985,0.36985 -0.88764,0.96161 -1.62735,1.81227c0.59176,-2.29308 1.07257,-4.29028 1.44242,-6.02858c0.36985,-1.7383 0.7397,-3.43962 1.07257,-5.14093c0.36985,-1.66433 0.7397,-3.29168 1.18352,-4.88204c0.40684,-1.55338 0.7397,-3.18072 0.9986,-4.88204c0.2589,-1.66433 0.59176,-3.32866 1.07257,-4.95601c0.48081,-1.62735 0.59176,-3.32866 0.36985,-5.14093c-1.07257,0 -3.29168,0.14794 -6.65732,0.44382c-3.36565,0.29588 -6.9532,0.7397 -10.72569,1.25749c-3.77248,0.55478 -7.43401,1.10955 -10.91061,1.70132c-3.4766,0.59176 -5.88064,1.14654 -7.2121,1.62735l0,4.32726c0.11096,5.76968 0.2589,11.50238 0.36985,17.12412c0.11096,5.65872 0.29588,11.35444 0.55478,17.12412c0.2589,6.62034 0.44382,13.20369 0.62875,19.75006c0.14794,4.77108 0.29588,9.57915 0.44382,14.38722c0.59176,0 1.14654,-0.07397 1.7383,-0.07397c5.99159,0.14794 13.09274,1.40543 20.23087,5.2149c0.62875,-3.88344 1.44242,-7.61894 2.62594,-11.20649c1.36845,-4.14233 2.92183,-8.24768 4.58616,-12.35303c2.40403,-6.13953 5.36284,-11.9462 8.91342,-17.42c3.55057,-5.4738 7.06416,-11.02157 10.54076,-16.68029c0.2589,-0.22191 0.51779,-0.48081 0.81367,-0.7397c0.29588,-0.22191 0.62875,-0.55478 0.9986,-0.88764l0,1.07257c-3.14374,9.72709 -6.2135,19.34322 -9.28327,28.8484c-3.06977,9.50518 -6.17652,19.12131 -9.28327,28.8484c-0.2589,0.59176 -0.40684,1.14654 -0.44382,1.62735c-0.07397,0.48081 0.22191,1.03558 0.81367,1.62735l3.06977,0c3.36565,-0.36985 6.73129,-0.70272 10.09694,-1.07257c3.36565,-0.36985 6.80526,-0.77669 10.28187,-1.25749c2.40403,-0.22191 4.77108,-0.55478 7.13813,-0.88764c2.33006,-0.36985 4.7341,-0.66573 7.13813,-0.88764c1.81227,-0.11096 2.9958,-1.03558 3.62454,-2.69991c0.11096,-0.22191 0.22191,-0.48081 0.2589,-0.70272c0.07397,-0.22191 0.14794,-0.48081 0.2589,-0.7397c2.77388,-8.06276 5.02998,-16.12552 6.76828,-24.26225c1.7383,-8.09974 2.7369,-16.45838 2.95881,-24.96496c0.2589,-3.25469 0.14794,-6.50938 -0.2589,-9.83804l0,0.03699z" class="cls-6"/>
   <path stroke="null" id="svg_276" fill="#f39200" stroke-width="0px" d="m643.04839,385.05219c-0.33287,-8.28467 -0.81367,-16.71728 -1.44242,-25.33481c-0.62875,-8.9504 -1.7383,-17.05015 -3.32866,-24.3732c-1.92323,-9.61613 -5.10395,-16.05155 -9.57915,-19.38021c-4.4752,-3.29168 -11.31745,-4.62314 -20.56373,-3.99439c-0.62875,0.33287 -1.59036,0.48081 -2.88484,0.48081c-11.16951,0.66573 -22.08012,1.92323 -32.73184,3.7355c-10.6887,1.81227 -21.41439,4.06836 -32.25103,6.69431c-6.36144,1.66433 -12.75987,3.4766 -19.12131,5.4738c-6.36144,1.9972 -12.57494,4.4752 -18.64051,7.471c-2.478,1.03558 -4.58616,2.36705 -6.58335,3.84645c2.95881,6.69431 5.17792,13.90641 6.50938,21.6363c1.7383,8.35864 2.7369,17.27206 2.88484,25.96356c0.14794,8.43261 -0.22191,17.05015 -1.10955,25.55673c-0.55478,5.10395 -1.03558,10.13393 -1.44242,15.12692c-0.51779,6.50938 -2.18212,13.24068 -4.91902,19.97197c-1.88624,4.66013 -6.13953,7.91482 -11.13252,8.54357c-3.66153,0.44382 -7.32306,0.7397 -10.98458,1.07257c0.29588,2.84786 0.55478,5.69571 0.92463,8.46959c1.59036,10.28187 3.25469,20.37881 5.02998,30.32781c1.7383,9.949 3.7355,19.898 5.99159,29.81002c1.59036,7.61894 4.62314,13.75847 9.09834,18.38161c4.4752,4.66013 10.02297,8.28467 16.71728,10.9476c2.84786,1.33146 5.88064,2.21911 9.06136,2.7369c3.18072,0.48081 6.36144,0.92463 9.54216,1.25749c10.2079,0.66573 20.1569,0.66573 29.88399,0c9.72709,-0.66573 19.34322,-1.81227 28.92237,-3.4766c5.39983,-0.9986 10.83664,-2.478 16.23647,-4.4752c14.64611,-5.28887 23.74445,-15.23787 27.25804,-29.81002c1.92323,-8.28467 3.32866,-17.05015 4.29028,-26.33341c0.96161,-14.23928 1.84926,-28.40458 2.62594,-42.49591c0.77669,-14.09133 1.66433,-28.73745 2.62594,-43.97532c-0.33287,-7.61894 -0.62875,-15.57074 -0.96161,-23.85541l0.07397,0z" class="cls-4"/>
   <path stroke="null" id="svg_277" fill="#f39200" stroke-width="0px" d="m419.88011,446.15163c0.2589,-2.58896 0.48081,-4.58616 0.62875,-6.02858c0.14794,-1.44242 0.33287,-2.81087 0.62875,-4.10535c1.36845,-8.35864 2.44102,-16.56934 3.10675,-24.59511c0.70272,-8.02577 0.62875,-16.23647 -0.22191,-24.59511c-0.55478,-3.84645 -1.40543,-7.39703 -2.478,-10.61473c-0.55478,-2.25609 -1.51639,-3.36565 -2.92183,-3.36565c-1.92323,0 -3.4766,0.96161 -4.58616,2.88484c-1.40543,2.88484 -2.62594,5.88064 -3.7355,8.91342c-1.10955,3.06977 -1.92323,6.17652 -2.478,9.39422c-0.81367,4.17932 -1.44242,8.35864 -1.88624,12.53796c-0.40684,4.17932 -0.77669,8.35864 -1.03558,12.53796c-0.81367,20.60072 -1.59036,41.01651 -2.29308,61.28436c-0.70272,20.26785 -1.33146,40.68364 -1.88624,61.28436c0,1.62735 -0.14794,3.36565 -0.40684,5.32586c-0.29588,1.92323 -0.40684,3.84645 -0.40684,5.80667c-11.28046,0.96161 -22.30203,1.36845 -33.02772,1.22051c-10.72569,-0.14794 -21.34042,-0.07397 -31.80721,0.2589c-1.10955,-4.80807 -1.70132,-12.87083 -1.84926,-24.1143c-0.14794,-11.24348 0.07397,-26.99915 0.62875,-47.267c0.29588,-11.57635 0.40684,-23.15269 0.40684,-34.72904s0.14794,-23.15269 0.40684,-34.72904c0.29588,-11.90921 0.36985,-23.6335 0.22191,-35.20984c-0.14794,-11.57635 0.07397,-23.48556 0.62875,-35.69065c9.35724,-2.58896 18.64051,-4.80807 27.88679,-6.76828c9.2093,-1.92323 18.38161,-3.84645 27.47995,-5.80667c1.10955,-0.29588 2.14514,-0.29588 3.10675,0c0.96161,0.33287 2.14514,0.48081 3.51359,0.48081c1.36845,3.55057 1.70132,6.91622 1.03558,10.13393c-0.70272,3.21771 -0.77669,6.43541 -0.22191,9.65312c1.10955,0.66573 1.9972,0.66573 2.69991,0c0.70272,-0.62875 1.33146,-1.29448 1.88624,-1.92323c3.58756,-4.17932 7.28607,-8.02577 11.02157,-11.57635c3.7355,-3.55057 7.84085,-6.58335 12.27906,-9.17231c8.02577,-5.14093 16.34743,-7.72989 24.92798,-7.72989c11.65032,0.33287 21.04454,6.28747 28.25664,17.86382c4.43822,7.39703 7.471,15.90361 9.13533,25.55673c1.66433,8.06276 2.55197,16.01456 2.69991,23.89239c0.14794,7.87783 -0.22191,15.82964 -1.03558,23.89239c-0.55478,5.14093 -1.03558,10.28187 -1.44242,15.4228c-0.40684,5.14093 -1.7383,10.46679 -3.95741,15.90361c-10.54076,1.29448 -21.04454,2.10815 -31.5853,2.40403c-10.54076,0.33287 -21.59932,0.81367 -33.24963,1.44242l-0.07397,-0.07397z" class="cls-4"/>
   <g stroke="null" id="svg_304">
    <path stroke="null" id="svg_305" stroke-width="0px" fill="#19472c" d="m518.37151,527.48193s12.57494,7.17512 13.16671,19.34322l0.59176,9.98599s0.70272,5.39983 -4.40123,4.58616l-8.46959,-0.9986s-7.17512,-0.88764 -5.76968,-7.39703l4.88204,-25.55673l0,0.03699z" class="cls-1"/>
    <path stroke="null" id="svg_306" stroke-width="0px" fill="#19472c" d="m565.08373,543.4595s0.29588,11.39142 -0.40684,14.57214c0,0 0.29588,1.9972 4.29028,1.70132l6.99019,-0.11096s4.69711,-1.18352 4.69711,-7.69291l-0.29588,-10.39282s-12.16811,1.88624 -15.27486,1.88624l0,0.03699z" class="cls-1"/>
    <path stroke="null" id="svg_307" fill="#f39200" stroke-width="0px" d="m527.98765,481.99022l3.29168,-11.24348s1.55338,-5.54777 4.80807,-3.51359c3.21771,2.03418 6.58335,5.54777 8.61754,9.65312c0,0 -7.61894,7.02717 -16.68029,5.10395l-0.03699,0z" class="cls-4"/>
    <path stroke="null" id="svg_308" fill="#fff" stroke-width="0px" d="m550.36365,473.66856l5.10395,-9.57915s2.40403,-3.21771 5.10395,-0.44382c2.69991,2.77388 4.69711,6.73129 4.17932,8.32165c0,0 -9.87503,4.32726 -14.38722,1.7383l0,-0.03699z" class="cls-6"/>
    <path stroke="null" id="svg_309" fill="#fff" stroke-width="0px" d="m572.66569,470.93166s-1.88624,1.7383 0.66573,3.06977l9.50518,2.9958s3.21771,0.07397 3.06977,-3.66153l-1.03558,-6.58335s-1.18352,-3.29168 -4.69711,-0.88764c-3.51359,2.40403 -7.471,5.10395 -7.471,5.10395l-0.03699,-0.03699z" class="cls-6"/>
    <path stroke="null" id="svg_310" fill="#fff" stroke-width="0px" d="m592.19383,480.80669s3.51359,-2.69991 11.46539,-1.40543c0,0 2.69991,2.33006 0.44382,6.28747c0,0 -2.03418,5.17792 -4.95601,3.95741c-2.92183,-1.18352 -6.50938,-6.73129 -6.9532,-8.83945z" class="cls-6"/>
    <path stroke="null" id="svg_311" fill="#fff" stroke-width="0px" d="m606.58105,499.4472s4.17932,-2.10815 9.72709,-0.81367c0,0 2.33006,3.58756 -2.478,7.84085c0,0 -1.40543,1.18352 -3.43962,-1.47941l-3.80947,-5.54777z" class="cls-6"/>
    <path stroke="null" id="svg_312" stroke-width="0px" fill="#19472c" d="m633.72814,501.37043s1.88624,15.27486 -11.76127,15.86662c-13.6845,0.59176 -23.44857,-21.45138 -23.44857,-21.45138c0,0 -5.88064,-16.97617 -29.847,-16.97617c0,0 -16.05155,-1.59036 -32.54691,8.98739c0,0 -9.39422,5.4738 -15.75567,-4.29028c-6.39843,-9.76407 -6.76828,-15.38581 -3.40263,-24.15129c3.40263,-8.76548 15.05295,-19.1583 33.61948,-12.46399l8.46959,3.58756s4.80807,1.81227 6.69431,-2.10815c1.88624,-3.88344 1.70132,-10.39282 -5.10395,-13.98038c0,0 -0.11096,-10.57775 -10.09694,-13.75847c0,0 -11.09554,-2.29308 -25.55673,6.17652c0,0 -30.14288,12.16811 -31.73324,39.13027c0,0 -2.9958,28.47855 26.77723,57.216c0,0 16.9022,12.83384 16.31044,29.40318c0,0 -2.88484,11.39142 5.99159,11.39142l4.10535,0s8.87643,0.40684 11.57635,-6.17652c2.69991,-6.58335 4.10535,-11.16951 2.18212,-16.1625c0,0 16.75426,-0.88764 23.26365,-2.88484c0,0 0.59176,2.9958 0.59176,5.76968l-0.11096,10.46679s-0.9986,8.28467 6.58335,8.28467c0,0 10.09694,1.88624 14.05435,-6.28747c3.99439,-8.17371 1.47941,-19.56513 1.47941,-19.56513c0,0 7.98879,4.17932 17.27206,1.59036c9.28327,-2.58896 26.14849,-13.57354 10.28187,-37.61388l0.11096,0zm-79.92487,-70.45667c1.55338,0 2.81087,1.25749 2.81087,2.81087s-1.25749,2.81087 -2.81087,2.81087s-2.81087,-1.25749 -2.81087,-2.81087s1.25749,-2.81087 2.81087,-2.81087z" class="cls-1"/>
   </g>
  </g>
 </g>
</svg>