<svg width="87" height="85" xmlns="http://www.w3.org/2000/svg" data-name="Livello 1" version="1.1" stroke="null">
 <g stroke="null">
  <title stroke="null">Layer 1</title>
  <ellipse fill="#fff" cx="35.37944" cy="7.73529" id="svg_2" rx="3.65196" ry="3.67647" stroke="#000"/>
  <g id="svg_233" stroke="null">
   <g id="svg_246" stroke="null"/>
   <g id="svg_252" stroke="null">
    <path class="cls-1" d="m14.80917,63.10642s7.4,4.23 7.76,11.4l0.35,5.88s0.41,3.17 -2.59,2.7l-5,-0.59s-4.23,-0.53 -3.41,-4.35l2.88,-15.04l0.01,0z" fill="#19472c" stroke-width="0px" id="svg_253" stroke="null"/>
    <path class="cls-1" d="m42.30917,72.50642s0.18,6.7 -0.24,8.58c0,0 0.18,1.18 2.53,1l4.11,-0.06s2.76,-0.71 2.76,-4.53l-0.18,-6.11s-7.17,1.12 -8.99,1.12l0.01,0z" fill="#19472c" stroke-width="0px" id="svg_254" stroke="null"/>
    <path class="cls-4" d="m20.45917,36.30642l1.94,-6.61s0.93,-3.26 2.82,-2.07c1.9,1.19 3.88,3.26 5.07,5.69c0,0 -4.5,4.14 -9.83,3l0,-0.01z" stroke-width="0px" fill="#f39200" id="svg_255" stroke="null"/>
    <path class="cls-4" d="m33.63917,31.41642l3,-5.64s1.41,-1.9 3,-0.26c1.59,1.63 2.78,3.97 2.47,4.89c0,0 -5.82,2.56 -8.46,1.01l-0.01,0z" stroke-width="0px" fill="#f39200" id="svg_256" stroke="null"/>
    <path class="cls-4" d="m46.77917,29.78642s-1.1,1.01 0.4,1.81l5.6,1.76s1.9,0.04 1.81,-2.16l-0.62,-3.88s-0.71,-1.94 -2.78,-0.53s-4.41,3 -4.41,3z" stroke-width="0px" fill="#f39200" id="svg_257" stroke="null"/>
    <path class="cls-4" d="m58.27917,35.59642s2.07,-1.59 6.74,-0.84c0,0 1.59,1.37 0.26,3.7c0,0 -1.19,3.04 -2.91,2.34c-1.72,-0.71 -3.83,-3.97 -4.1,-5.2l0.01,0z" stroke-width="0px" fill="#f39200" id="svg_258" stroke="null"/>
    <path class="cls-4" d="m66.73917,46.57642s2.47,-1.23 5.73,-0.48c0,0 1.37,2.12 -1.45,4.63c0,0 -0.84,0.71 -2.03,-0.88l-2.25,-3.26l0,-0.01z" stroke-width="0px" fill="#f39200" id="svg_259" stroke="null"/>
    <path class="cls-1" d="m82.73917,47.70642s1.12,8.99 -6.93,9.34c-8.05,0.35 -13.81,-12.63 -13.81,-12.63c0,0 -3.47,-9.99 -17.57,-9.99c0,0 -9.46,-0.94 -19.16,5.29c0,0 -5.52,3.23 -9.29,-2.53c-3.76,-5.76 -4,-9.05 -2,-14.22c2,-5.17 8.87,-11.28 19.8,-7.35l5,2.12s2.82,1.06 3.94,-1.23c1.12,-2.29 1,-6.11 -3,-8.23c0,0 -0.06,-6.23 -5.94,-8.11c0,0 -6.52,-1.35 -15.04,3.64c0,0 -17.75,7.17 -18.69,23.04c0,0 -1.76,16.78 15.78,33.7c0,0 9.96,7.55 9.61,17.31c0,0 -1.7,6.7 3.53,6.7l2.41,0s5.23,0.24 6.82,-3.64c1.59,-3.88 2.41,-6.58 1.29,-9.52c0,0 9.87,-0.53 13.69,-1.7c0,0 0.35,1.76 0.35,3.41l-0.06,6.17s-0.59,4.88 3.88,4.88c0,0 5.94,1.12 8.29,-3.7c2.35,-4.82 0.88,-11.52 0.88,-11.52c0,0 4.7,2.47 10.17,0.94c5.47,-1.53 15.4,-7.99 6.05,-22.15l0,-0.02zm-47.07,-41.49c0.91,0 1.65,0.74 1.65,1.65s-0.74,1.65 -1.65,1.65s-1.65,-0.74 -1.65,-1.65s0.74,-1.65 1.65,-1.65z" fill="#19472c" stroke-width="0px" id="svg_260" stroke="null"/>
   </g>
  </g>
 </g>

</svg>