<svg viewBox="0 0 256 256" xmlns="http://www.w3.org/2000/svg" fill="none">
  <title>Layer 1</title>
  <defs>
	<mask id="cutout">
    <!-- Cerchio bianco (visibile) -->
    	<path id="svg_2" d="m128.00001,255.76472c-70.63157,0 -127.84314,-57.21157 -127.84314,-127.84314c0,-70.63157 57.21157,-127.84314 127.84314,-127.84314c70.63157,0 127.84314,57.21157 127.84314,127.84314c0,70.63157 -57.21157,127.84314 -127.84314,127.84314z" opacity="undefined" stroke="null" fill="#ffffff"/>
    <!-- Casa nera (buca) -->
    	<path 	d="m64.28508,114.27514l0,82.34917l45.74954,0l0,-36.59963c0,-10.10671 8.1931,-18.29982 18.29982,-18.29982c10.10671,0 18.29982,8.1931 18.29982,18.29982l0,36.59963l45.74954,0l0,-82.34917l-64.04936,-54.89945l-64.04936,54.89945z" opacity="undefined" stroke="null" fill="#000000"/>
  	</mask>
  </defs>
  <path id="svg_2" d="m128.00001,255.76472c-70.63157,0 -127.84314,-57.21157 -127.84314,-127.84314c0,-70.63157 57.21157,-127.84314 127.84314,-127.84314c70.63157,0 127.84314,57.21157 127.84314,127.84314c0,70.63157 -57.21157,127.84314 -127.84314,127.84314z" opacity="undefined" stroke="null" fill="black" mask="url(#cutout)"/>
</svg>